<svg width="56" height="60" viewBox="0 0 56 60" fill="none" xmlns="http://www.w3.org/2000/svg">
<path d="M31.4962 48.9504H24.5287C23.535 48.9504 22.7023 48.1983 22.602 47.2096L22.2829 44.068C21.7631 43.8157 21.2609 43.5294 20.7793 43.2103L17.8226 44.5243C16.9216 44.9244 15.8642 44.5843 15.3657 43.7341L11.882 37.7928C11.3735 36.9255 11.6131 35.8134 12.4337 35.2326L15.0442 33.3846C15.026 33.1076 15.017 32.8303 15.017 32.5537C15.017 32.2772 15.026 31.9998 15.0442 31.7228L12.4337 29.8749C11.6131 29.294 11.3733 28.1819 11.882 27.3147L15.3657 21.3733C15.8641 20.5231 16.9217 20.1831 17.8226 20.5832L20.7793 21.8971C21.2609 21.5781 21.7631 21.2918 22.2829 21.0394L22.602 17.8979C22.7023 16.9092 23.535 16.157 24.5287 16.157H31.4962C32.49 16.157 33.3226 16.9092 33.4229 17.8979L33.742 21.0394C34.2618 21.2917 34.764 21.5781 35.2456 21.8971L38.2023 20.5832C39.1033 20.1829 40.1608 20.5231 40.6592 21.3733L44.1429 27.3147C44.6515 28.1819 44.4118 29.294 43.5912 29.8749L40.9807 31.7228C40.9989 31.9998 41.0079 32.2772 41.0079 32.5537C41.0079 32.8303 40.9989 33.1076 40.9807 33.3846L43.5912 35.2326C44.4118 35.8134 44.6516 36.9255 44.1429 37.7928L40.6592 43.7341C40.1607 44.5842 39.1031 44.9242 38.2023 44.5243L35.2456 43.2103C34.764 43.5294 34.2618 43.8156 33.742 44.068L33.4229 47.2096C33.3226 48.1983 32.4901 48.9504 31.4962 48.9504ZM26.2786 45.0772H29.7463L30.0036 42.5432C30.078 41.8098 30.5625 41.1822 31.2534 40.9245C32.1747 40.5808 33.0297 40.0941 33.7948 39.478C34.3602 39.0226 35.1326 38.9218 35.7959 39.2165L38.1935 40.2819L39.9028 37.3671L37.8096 35.8855C37.2048 35.4575 36.8973 34.7218 37.0174 33.9908C37.0953 33.5169 37.1347 33.0333 37.1347 32.5538C37.1347 32.0743 37.0952 31.5908 37.0174 31.1169C36.8972 30.3859 37.2048 29.6504 37.8096 29.2222L39.9028 27.7406L38.1935 24.8257L35.7959 25.8911C35.1328 26.1858 34.3603 26.0851 33.7948 25.6297C33.0297 25.0136 32.1747 24.5269 31.2534 24.1832C30.5625 23.9255 30.078 23.2979 30.0036 22.5644L29.7464 20.0305H26.2786L26.0213 22.5644C25.9469 23.2979 25.4624 23.9255 24.7715 24.1832C23.8502 24.5269 22.9952 25.0136 22.2301 25.6297C21.6646 26.0851 20.892 26.1856 20.229 25.8911L17.8314 24.8257L16.1221 27.7406L18.2154 29.2222C18.8201 29.6502 19.1276 30.3859 19.0076 31.1169C18.9296 31.5908 18.8902 32.0743 18.8902 32.5538C18.8902 33.0333 18.9297 33.5169 19.0076 33.9908C19.1278 34.7218 18.8201 35.4573 18.2154 35.8855L16.1221 37.3671L17.8314 40.2819L20.229 39.2165C20.8923 38.922 21.6647 39.0228 22.2301 39.478C22.9952 40.0941 23.8502 40.5808 24.7715 40.9245C25.4624 41.1822 25.9469 41.8098 26.0213 42.5432L26.2786 45.0772Z" fill="#DA9D1A"/>
<path d="M25.8973 12.4355L22.9122 9.96758L25.9301 6.31734L22.1102 2.8787L24.7014 0L29.9013 4.68091C30.6729 5.37525 30.7595 6.55438 30.0982 7.3542L25.8973 12.4355Z" fill="#DA9D1A"/>
<path d="M41.5303 56.4233L39.6521 53.036C40.769 52.4166 41.8409 51.7069 42.8377 50.9264L45.2254 53.9761C44.0685 54.8819 42.8252 55.7052 41.5303 56.4233ZM48.4896 50.9699L45.6461 48.3402C46.5081 47.408 47.3017 46.3983 48.005 45.3388L51.2319 47.4812C50.4145 48.7124 49.4918 49.8862 48.4896 50.9699ZM53.3833 43.6031L49.8578 41.9988C50.3842 40.8421 50.8224 39.6337 51.16 38.4073L54.8943 39.4354C54.5026 40.8584 53.9941 42.2607 53.3833 43.6031ZM55.73 35.0823L51.8803 34.6556C51.9775 33.7785 52.0268 32.8878 52.0267 32.0081C52.0267 31.6187 52.0171 31.2255 51.998 30.8389L55.8667 30.6493C55.8886 31.0985 55.8999 31.5557 55.8999 32.0077C55.8999 33.0295 55.8428 34.0639 55.73 35.0823ZM51.5074 27.0536C51.244 25.8124 50.8777 24.5815 50.4186 23.395L54.0309 21.9975C54.5643 23.3763 54.9899 24.8069 55.2962 26.2498L51.5074 27.0536ZM48.7626 19.9503C48.121 18.8468 47.3895 17.7901 46.5882 16.8092L49.5876 14.3588C50.5179 15.4975 51.3669 16.7238 52.111 18.0036L48.7626 19.9503ZM43.9444 14.056C42.9952 13.2141 41.9692 12.4417 40.8948 11.7598L42.9701 8.48957C44.2185 9.28177 45.411 10.1797 46.5144 11.1582L43.9444 14.056ZM37.5177 9.97688C36.3504 9.47452 35.133 9.06151 33.8999 8.7492L34.8505 4.99451C36.2815 5.35691 37.6938 5.83616 39.0487 6.41907L37.5177 9.97688Z" fill="#DA9D1A"/>
<path d="M28.0132 59.9253C19.9142 59.9253 11.9577 56.4007 6.51575 49.7999L9.50432 47.3361C16.8528 56.2499 29.5315 58.6467 39.6521 53.0359L41.5302 56.4231C37.2701 58.7854 32.6184 59.9253 28.0132 59.9253Z" fill="#DA9D1A"/>
<path d="M3.0154 44.3875C-0.168773 37.9545 -0.74756 30.6278 1.38555 23.7571C3.52563 16.8639 8.18136 11.1401 14.4947 7.63972C18.8292 5.23652 23.7242 4.03092 28.6536 4.14595L28.561 8.01813C24.3213 7.91459 20.1058 8.95713 16.3728 11.027C5.13146 17.2596 0.789073 31.1585 6.48657 42.6693L3.0154 44.3875Z" fill="#DA9D1A"/>
<path d="M26.5264 31.0342C26.5264 29.7985 25.7256 28.5518 23.9366 28.5518C22.9502 28.5518 22.1426 28.9668 21.4071 29.5878L22.0937 31.1081C22.5781 30.7042 23.068 30.241 23.7433 30.241C24.1438 30.241 24.6761 30.3355 24.6761 31.1476C24.6673 32.007 23.9442 32.8327 22.2141 34.4793L21.3358 35.3323V36.5564H26.6983V34.867H24.2313C25.5487 33.5805 26.5264 32.4499 26.5264 31.0342Z" fill="#DA9D1A"/>
<path d="M33.7114 33.0092V28.6702H32.0025L28.671 33.4376V34.6556H31.9146V36.5567H33.7115V34.6556H34.689V33.0092H33.7114ZM30.9473 33.0092L31.9145 31.6648V33.0092H30.9473Z" fill="#DA9D1A"/>
</svg>
