<svg width="108" height="43" viewBox="0 0 108 43" fill="none" xmlns="http://www.w3.org/2000/svg">
<path opacity="0.9" d="M43.446 22.5771H38.4539L37.5134 28H35.3425L37.5574 15.2031H45.4675L45.1511 16.9961H39.4207L38.7615 20.8018H43.7625L43.446 22.5771ZM50.8464 25.0205H46.0564L44.5271 28H42.1892L49.0974 15.2031H51.0486L53.5271 28H51.3474L50.8464 25.0205ZM46.9705 23.2275H50.5564L49.6863 17.9365L46.9705 23.2275ZM62.1228 24.6426C62.2517 23.7988 61.7917 23.1719 60.7429 22.7617L60.031 22.498C58.7068 22.0352 57.7664 21.4873 57.2097 20.8545C56.6531 20.2217 56.4011 19.4863 56.4539 18.6484C56.5007 17.9219 56.7468 17.2832 57.1921 16.7324C57.6433 16.1758 58.2351 15.748 58.9675 15.4492C59.7 15.1504 60.4792 15.0098 61.3054 15.0273C62.1023 15.0449 62.8113 15.2207 63.4324 15.5547C64.0535 15.8828 64.5281 16.3428 64.8562 16.9346C65.1843 17.5205 65.3367 18.1914 65.3132 18.9473L63.1511 18.9385C63.1921 18.2705 63.0427 17.752 62.7029 17.3828C62.3689 17.0137 61.8621 16.8203 61.1824 16.8027C60.4968 16.791 59.9167 16.9521 59.4421 17.2861C58.9734 17.6201 58.698 18.0713 58.616 18.6396C58.4988 19.3838 58.9968 19.9697 60.1101 20.3975L60.7693 20.6348C62.1111 21.1152 63.0486 21.6807 63.5818 22.3311C64.115 22.9756 64.3494 23.7402 64.2849 24.625C64.2263 25.3457 63.989 25.9756 63.573 26.5146C63.157 27.0479 62.5798 27.4609 61.8416 27.7539C61.1091 28.0469 60.3005 28.1875 59.4158 28.1758C58.5779 28.1699 57.8162 27.9941 57.1306 27.6484C56.4509 27.3027 55.9294 26.8252 55.5662 26.2158C55.2029 25.6006 55.0359 24.9033 55.0652 24.124L57.2361 24.1328C57.1892 24.8594 57.3679 25.4189 57.7722 25.8115C58.1765 26.2041 58.7566 26.4062 59.5125 26.418C60.2156 26.4297 60.8015 26.2803 61.2703 25.9697C61.7449 25.6592 62.0291 25.2168 62.1228 24.6426ZM75.5525 28H73.3904L74.3748 22.3135H68.8376L67.8533 28H65.6824L67.906 15.2031H70.0769L69.1453 20.5293H74.6824L75.6052 15.2031H77.7761L75.5525 28ZM80.4656 28H78.3035L80.5271 15.2031H82.6892L80.4656 28ZM88.1296 28.1758C87.2976 28.1582 86.5652 27.959 85.9324 27.5781C85.3054 27.1973 84.8162 26.6465 84.4646 25.9258C84.113 25.1992 83.9138 24.376 83.8669 23.4561C83.8259 22.7236 83.8904 21.8682 84.0603 20.8896C84.2361 19.9111 84.5437 19.0205 84.9832 18.2178C85.4285 17.4092 85.9587 16.75 86.574 16.2402C87.5876 15.4082 88.7595 15.0039 90.0896 15.0273C91.3552 15.0508 92.363 15.4873 93.113 16.3369C93.8689 17.1865 94.282 18.335 94.3523 19.7822C94.3875 20.5088 94.3201 21.3438 94.1501 22.2871C93.9861 23.2246 93.699 24.0889 93.2888 24.8799C92.8845 25.665 92.3806 26.3213 91.7771 26.8486C90.7341 27.7627 89.5183 28.2051 88.1296 28.1758ZM92.1287 21.2588L92.2078 20.3271C92.2429 19.6885 92.1873 19.0996 92.0408 18.5605C91.8943 18.0156 91.6453 17.6025 91.2937 17.3213C90.948 17.0342 90.5085 16.8818 89.9753 16.8643C89.2371 16.8408 88.5808 17.0488 88.0066 17.4883C87.4382 17.9277 86.9753 18.5957 86.6179 19.4922C86.2664 20.3887 86.0613 21.5137 86.0027 22.8672C85.9441 23.9395 86.1082 24.7832 86.4949 25.3984C86.8816 26.0137 87.4617 26.333 88.2351 26.3564C89.2488 26.3857 90.0837 26.0049 90.74 25.2139C91.4021 24.4229 91.8357 23.3096 92.0408 21.874L92.1287 21.2588ZM105.216 28H103.115L99.116 18.833L97.5251 28H95.3542L97.5779 15.2031H99.6785L103.677 24.4053L105.277 15.2031H107.439L105.216 28Z" fill="url(#paint0_linear_2008_950)"/>
<path d="M5.53155 15.7328C4.67878 14.1675 3.79636 12.5491 3.78366 11.3622C3.77618 10.6521 4.62572 8.4639 5.23138 7.1369C5.26588 7.0612 5.28772 6.98034 5.296 6.89756L5.98579 0H6.12981L6.81961 6.89794C6.8384 7.0849 6.92596 7.25821 7.0653 7.38427C7.20464 7.51032 7.38584 7.58013 7.57374 7.58015C9.02723 7.58015 10.3919 8.40857 11.7116 9.20989C12.8997 9.93095 14.022 10.6122 15.1539 10.6122C16.2858 10.6122 17.408 9.93095 18.5962 9.20989C19.9159 8.40857 21.2805 7.58015 22.734 7.58015C22.922 7.58016 23.1032 7.51036 23.2425 7.3843C23.3819 7.25824 23.4695 7.08491 23.4883 6.89794L24.1781 0H24.3221L25.0119 6.89794C25.0202 6.98069 25.042 7.06152 25.0765 7.13719C25.6822 8.46485 26.5317 10.6534 26.5241 11.3626C26.5115 12.5493 25.6294 14.1679 24.7763 15.7332C24.1953 16.7991 23.6033 17.886 23.2072 18.9508H7.10064C6.70458 17.8857 6.11257 16.7988 5.53155 15.7328Z" fill="#DA5D1A"/>
<path d="M6.05795 29.5629C5.90716 29.5629 5.7598 29.608 5.63473 29.6922C5.50966 29.7764 5.41256 29.8961 5.35584 30.0358C3.88965 33.6467 3.11022 37.82 3.03366 42.4492H-9.53674e-06C0.163343 32.1568 3.64538 27.5732 5.74584 24.8084C6.1059 24.3347 6.4309 23.9053 6.70473 23.4989H23.5286C23.771 23.8958 24.057 24.3151 24.3732 24.778C26.266 27.5468 29.4039 32.1374 29.551 42.4492H26.546C26.4682 37.8341 25.6787 33.66 24.1938 30.0337C24.158 29.9388 24.1037 29.8521 24.0338 29.7786C23.964 29.7051 23.8801 29.6463 23.7872 29.6058C23.6943 29.5653 23.5941 29.5439 23.4928 29.5427C23.3914 29.5416 23.2908 29.5608 23.197 29.5992C23.1032 29.6377 23.018 29.6945 22.9466 29.7665C22.8751 29.8384 22.8188 29.9239 22.781 30.018C22.7432 30.112 22.7246 30.2127 22.7264 30.3141C22.7282 30.4154 22.7503 30.5154 22.7914 30.6081C22.7923 30.6102 22.793 30.6124 22.794 30.6145L22.7946 30.6162C24.203 34.059 24.9537 38.0368 25.0308 42.449H4.55017C4.62597 38.0178 5.36807 34.0364 6.76101 30.606C6.80787 30.4909 6.82568 30.366 6.81287 30.2423C6.80006 30.1187 6.75702 30.0001 6.68754 29.897C6.61807 29.794 6.5243 29.7096 6.41451 29.6513C6.30471 29.593 6.18226 29.5627 6.05795 29.5629ZM21.9763 28.0469C22.1262 28.0469 22.2727 28.0024 22.3974 27.9191C22.5221 27.8358 22.6192 27.7174 22.6766 27.5789C22.734 27.4404 22.749 27.288 22.7197 27.141C22.6905 26.9939 22.6183 26.8588 22.5123 26.7528C22.4063 26.6468 22.2712 26.5746 22.1242 26.5454C21.9771 26.5161 21.8247 26.5312 21.6862 26.5885C21.5477 26.6459 21.4293 26.7431 21.346 26.8677C21.2627 26.9924 21.2183 27.1389 21.2183 27.2888C21.2183 27.4899 21.2981 27.6827 21.4403 27.8248C21.5824 27.967 21.7752 28.0469 21.9763 28.0469ZM7.57398 28.0469C7.72391 28.0469 7.87046 28.0024 7.99511 27.9191C8.11977 27.8358 8.21692 27.7174 8.2743 27.5789C8.33167 27.4404 8.34668 27.288 8.31743 27.141C8.28819 26.9939 8.21599 26.8588 8.10998 26.7528C8.00397 26.6468 7.86891 26.5746 7.72187 26.5454C7.57483 26.5161 7.42241 26.5312 7.28391 26.5885C7.1454 26.6459 7.02701 26.7431 6.94372 26.8677C6.86042 26.9924 6.81597 27.1389 6.81597 27.2888C6.81597 27.4899 6.89583 27.6827 7.03798 27.8248C7.18014 27.967 7.37295 28.0469 7.57398 28.0469Z" fill="#DA5D1A"/>
<path d="M7.46557 21.9826C7.53613 21.736 7.57254 21.481 7.57378 21.2245C7.5727 20.9707 7.55224 20.7173 7.51257 20.4665H22.7953C22.7556 20.7173 22.7352 20.9707 22.7341 21.2245C22.7353 21.4804 22.7688 21.7351 22.834 21.9826H7.46557Z" fill="#DA5D1A"/>
<defs>
<linearGradient id="paint0_linear_2008_950" x1="34.9998" y1="28" x2="84" y2="28" gradientUnits="userSpaceOnUse">
<stop/>
<stop offset="1" stop-color="#DA5D1A"/>
</linearGradient>
</defs>
</svg>
