<svg width="275" height="50" viewBox="0 0 275 50" fill="none" xmlns="http://www.w3.org/2000/svg">
<circle opacity="0.3" cx="250" cy="25" r="24.5" stroke="black"/>
<path d="M253.559 21.9048C254.873 21.9048 256.133 22.4215 257.062 23.3412C257.991 24.261 258.513 25.5084 258.513 26.8091V32.5308H255.21V26.8091C255.21 26.3755 255.036 25.9597 254.726 25.6531C254.417 25.3466 253.997 25.1743 253.559 25.1743C253.121 25.1743 252.701 25.3466 252.391 25.6531C252.082 25.9597 251.908 26.3755 251.908 26.8091V32.5308H248.605V26.8091C248.605 25.5084 249.127 24.261 250.056 23.3412C250.985 22.4215 252.245 21.9048 253.559 21.9048Z" stroke="black" stroke-linecap="round" stroke-linejoin="round"/>
<path d="M245.303 22.7212H242V32.5298H245.303V22.7212Z" stroke="black" stroke-linecap="round" stroke-linejoin="round"/>
<path d="M243.652 20.2695C244.564 20.2695 245.303 19.5376 245.303 18.6348C245.303 17.7319 244.564 17 243.652 17C242.74 17 242 17.7319 242 18.6348C242 19.5376 242.74 20.2695 243.652 20.2695Z" stroke="black" stroke-linecap="round" stroke-linejoin="round"/>
<circle opacity="0.3" cx="175" cy="25" r="24.5" stroke="black"/>
<path d="M179.167 16.6665H170.833C168.532 16.6665 166.667 18.532 166.667 20.8332V29.1665C166.667 31.4677 168.532 33.3332 170.833 33.3332H179.167C181.468 33.3332 183.333 31.4677 183.333 29.1665V20.8332C183.333 18.532 181.468 16.6665 179.167 16.6665Z" stroke="black" stroke-linecap="round" stroke-linejoin="round"/>
<path d="M178.332 24.4753C178.435 25.1688 178.317 25.8771 177.994 26.4994C177.671 27.1218 177.16 27.6264 176.534 27.9416C175.907 28.2569 175.198 28.3666 174.505 28.2552C173.813 28.1438 173.174 27.817 172.678 27.3212C172.182 26.8255 171.855 26.186 171.744 25.4938C171.633 24.8015 171.742 24.0918 172.058 23.4656C172.373 22.8393 172.877 22.3284 173.5 22.0055C174.122 21.6825 174.83 21.5641 175.524 21.6669C176.231 21.7718 176.886 22.1015 177.392 22.6072C177.898 23.1129 178.227 23.7678 178.332 24.4753Z" stroke="black" stroke-linecap="round" stroke-linejoin="round"/>
<path d="M179.583 20.417H179.591" stroke="black" stroke-linecap="round" stroke-linejoin="round"/>
<circle opacity="0.3" cx="100" cy="25" r="24.5" stroke="black"/>
<path d="M104.167 16.6665H101.667C100.562 16.6665 99.5019 17.1055 98.7205 17.8869C97.9391 18.6683 97.5001 19.7281 97.5001 20.8332V23.3332H95.0001V26.6665H97.5001V33.3332H100.833V26.6665H103.333L104.167 23.3332H100.833V20.8332C100.833 20.6122 100.921 20.4002 101.078 20.2439C101.234 20.0876 101.446 19.9998 101.667 19.9998H104.167V16.6665Z" stroke="black" stroke-linecap="round" stroke-linejoin="round"/>
<circle opacity="0.3" cx="25" cy="25" r="24.5" stroke="black"/>
<path d="M33.3333 18.3419C32.5353 18.9048 31.6518 19.3353 30.7167 19.6169C30.2148 19.0398 29.5478 18.6308 28.8059 18.4451C28.0639 18.2595 27.2829 18.3062 26.5684 18.5789C25.8539 18.8516 25.2404 19.3372 24.8108 19.97C24.3813 20.6027 24.1564 21.3522 24.1667 22.1169V22.9502C22.7022 22.9882 21.2511 22.6634 19.9425 22.0047C18.634 21.3461 17.5086 20.3741 16.6667 19.1752C16.6667 19.1752 13.3333 26.6752 20.8333 30.0085C19.1171 31.1735 17.0726 31.7577 15 31.6752C22.5 35.8419 31.6667 31.6752 31.6667 22.0919C31.6659 21.8598 31.6436 21.6282 31.6 21.4002C32.4505 20.5615 33.0507 19.5025 33.3333 18.3419V18.3419Z" stroke="black" stroke-linecap="round" stroke-linejoin="round"/>
</svg>
