<svg width="16" height="17" viewBox="0 0 16 17" fill="none" xmlns="http://www.w3.org/2000/svg">
<path fill-rule="evenodd" clip-rule="evenodd" d="M4.97663 1.21069C5.75863 1.17469 6.00796 1.16669 7.99996 1.16669C9.99196 1.16669 10.2413 1.17535 11.0226 1.21069C11.804 1.24602 12.3373 1.37069 12.804 1.55135C13.2926 1.73602 13.736 2.02469 14.1026 2.39802C14.476 2.76402 14.764 3.20669 14.948 3.69602C15.1293 4.16269 15.2533 4.69602 15.2893 5.47602C15.3253 6.25935 15.3333 6.50869 15.3333 8.50002C15.3333 10.492 15.3246 10.7414 15.2893 11.5234C15.254 12.3034 15.1293 12.8367 14.948 13.3034C14.764 13.7927 14.4755 14.2362 14.1026 14.6027C13.736 14.976 13.2926 15.264 12.804 15.448C12.3373 15.6294 11.804 15.7534 11.024 15.7894C10.2413 15.8254 9.99196 15.8334 7.99996 15.8334C6.00796 15.8334 5.75863 15.8247 4.97663 15.7894C4.19663 15.754 3.66329 15.6294 3.19663 15.448C2.70724 15.264 2.26384 14.9755 1.89729 14.6027C1.52421 14.2365 1.2355 13.7933 1.05129 13.304C0.870626 12.8374 0.746626 12.304 0.710626 11.524C0.674626 10.7407 0.666626 10.4914 0.666626 8.50002C0.666626 6.50802 0.675293 6.25869 0.710626 5.47735C0.745959 4.69602 0.870626 4.16269 1.05129 3.69602C1.23577 3.20674 1.52471 2.76356 1.89796 2.39735C2.26399 2.02435 2.70694 1.73565 3.19596 1.55135C3.66263 1.37069 4.19596 1.24669 4.97596 1.21069H4.97663ZM10.9633 2.53069C10.19 2.49535 9.95796 2.48802 7.99996 2.48802C6.04196 2.48802 5.80996 2.49535 5.03663 2.53069C4.32129 2.56335 3.93329 2.68269 3.67463 2.78335C3.33263 2.91669 3.08796 3.07469 2.83129 3.33135C2.58799 3.56805 2.40075 3.85621 2.28329 4.17469C2.18263 4.43335 2.06329 4.82135 2.03063 5.53669C1.99529 6.31002 1.98796 6.54202 1.98796 8.50002C1.98796 10.458 1.99529 10.69 2.03063 11.4634C2.06329 12.1787 2.18263 12.5667 2.28329 12.8254C2.40063 13.1434 2.58796 13.432 2.83129 13.6687C3.06796 13.912 3.35663 14.0994 3.67463 14.2167C3.93329 14.3174 4.32129 14.4367 5.03663 14.4694C5.80996 14.5047 6.04129 14.512 7.99996 14.512C9.95863 14.512 10.19 14.5047 10.9633 14.4694C11.6786 14.4367 12.0666 14.3174 12.3253 14.2167C12.6673 14.0834 12.912 13.9254 13.1686 13.6687C13.412 13.432 13.5993 13.1434 13.7166 12.8254C13.8173 12.5667 13.9366 12.1787 13.9693 11.4634C14.0046 10.69 14.012 10.458 14.012 8.50002C14.012 6.54202 14.0046 6.31002 13.9693 5.53669C13.9366 4.82135 13.8173 4.43335 13.7166 4.17469C13.5833 3.83269 13.4253 3.58802 13.1686 3.33135C12.9319 3.08807 12.6438 2.90083 12.3253 2.78335C12.0666 2.68269 11.6786 2.56335 10.9633 2.53069ZM7.06329 10.7607C7.5864 10.9784 8.16888 11.0078 8.71124 10.8438C9.25361 10.6798 9.72222 10.3326 10.037 9.86152C10.3518 9.3904 10.4933 8.8246 10.4373 8.26076C10.3813 7.69691 10.1313 7.17 9.72996 6.77002C9.47412 6.51434 9.16477 6.31856 8.82418 6.19678C8.48359 6.07501 8.12024 6.03026 7.76029 6.06576C7.40033 6.10127 7.05273 6.21614 6.7425 6.40211C6.43226 6.58808 6.16712 6.84052 5.96616 7.14125C5.7652 7.44199 5.63342 7.78355 5.5803 8.14133C5.52719 8.49911 5.55406 8.86421 5.65899 9.21036C5.76391 9.55651 5.94428 9.87509 6.18711 10.1432C6.42993 10.4112 6.72918 10.6221 7.06329 10.7607ZM5.33463 5.83469C5.68464 5.48467 6.10017 5.20702 6.55749 5.01759C7.01481 4.82817 7.50496 4.73067 7.99996 4.73067C8.49496 4.73067 8.98511 4.82817 9.44243 5.01759C9.89974 5.20702 10.3153 5.48467 10.6653 5.83469C11.0153 6.1847 11.293 6.60023 11.4824 7.05755C11.6718 7.51487 11.7693 8.00502 11.7693 8.50002C11.7693 8.99502 11.6718 9.48517 11.4824 9.94249C11.293 10.3998 11.0153 10.8153 10.6653 11.1654C9.9584 11.8722 8.99965 12.2694 7.99996 12.2694C7.00027 12.2694 6.04152 11.8722 5.33463 11.1654C4.62774 10.4585 4.23061 9.49971 4.23061 8.50002C4.23061 7.50033 4.62774 6.54158 5.33463 5.83469ZM12.6053 5.29202C12.692 5.2102 12.7615 5.11181 12.8095 5.00267C12.8575 4.89353 12.8832 4.77587 12.8849 4.65664C12.8866 4.53741 12.8644 4.41905 12.8196 4.30856C12.7748 4.19807 12.7082 4.09769 12.6239 4.01338C12.5396 3.92907 12.4392 3.86252 12.3288 3.8177C12.2183 3.77287 12.0999 3.75067 11.9807 3.75241C11.8614 3.75415 11.7438 3.77979 11.6346 3.82782C11.5255 3.87585 11.4271 3.94528 11.3453 4.03202C11.1862 4.20071 11.099 4.42477 11.1024 4.65664C11.1058 4.88851 11.1994 5.10994 11.3634 5.27392C11.5274 5.43789 11.7488 5.53151 11.9807 5.53489C12.2125 5.53827 12.4366 5.45115 12.6053 5.29202Z" fill="white"/>
</svg>
