<svg width="16" height="17" viewBox="0 0 16 17" fill="none" xmlns="http://www.w3.org/2000/svg">
<path fill-rule="evenodd" clip-rule="evenodd" d="M5.00016 1.33337C5.36835 1.33337 5.66683 1.63185 5.66683 2.00004V2.33338L10.3335 2.33339V2.00004C10.3335 1.63185 10.632 1.33337 11.0002 1.33337C11.3684 1.33337 11.6668 1.63185 11.6668 2.00004V2.33339L12.5002 2.3334C13.9729 2.3334 15.1668 3.52731 15.1668 5.00006V13C15.1668 14.4728 13.9729 15.6667 12.5002 15.6667L3.50016 15.6667C2.0274 15.6667 0.833496 14.4728 0.833496 13L0.833496 6.50017L0.833496 5.00004C0.833496 3.52728 2.02741 2.33337 3.50017 2.33338L4.3335 2.33338V2.00004C4.3335 1.63185 4.63197 1.33337 5.00016 1.33337ZM4.3335 3.66671L3.50017 3.66671C2.76378 3.66671 2.16683 4.26366 2.16683 5.00004V5.83337H13.8335V5.00006C13.8335 4.26368 13.2365 3.66673 12.5002 3.66673L11.6668 3.66673V4.00004C11.6668 4.36823 11.3684 4.66671 11.0002 4.66671C10.632 4.66671 10.3335 4.36823 10.3335 4.00004V3.66672L5.66683 3.66672V4.00004C5.66683 4.36823 5.36835 4.66671 5.00016 4.66671C4.63197 4.66671 4.3335 4.36823 4.3335 4.00004V3.66671ZM13.8335 7.16671H2.16683L2.16683 13C2.16683 13.7364 2.76378 14.3334 3.50016 14.3334L12.5002 14.3334C13.2365 14.3334 13.8335 13.7364 13.8335 13V7.16671Z" fill="#787A80"/>
</svg>
