<svg width="16" height="17" viewBox="0 0 16 17" fill="none" xmlns="http://www.w3.org/2000/svg">
<path d="M8.6665 4.83329C8.6665 4.4651 8.36803 4.16663 7.99984 4.16663C7.63165 4.16663 7.33317 4.4651 7.33317 4.83329V8.49996C7.33317 8.67677 7.40341 8.84634 7.52843 8.97136L9.52843 10.9714C9.78878 11.2317 10.2109 11.2317 10.4712 10.9714C10.7316 10.711 10.7316 10.2889 10.4712 10.0286L8.6665 8.22382V4.83329Z" fill="#787A80"/>
<path fill-rule="evenodd" clip-rule="evenodd" d="M7.99984 1.16663C3.94975 1.16663 0.666504 4.44987 0.666504 8.49996C0.666504 12.55 3.94975 15.8333 7.99984 15.8333C12.0499 15.8333 15.3332 12.55 15.3332 8.49996C15.3332 4.44987 12.0499 1.16663 7.99984 1.16663ZM1.99984 8.49996C1.99984 5.18625 4.68613 2.49996 7.99984 2.49996C11.3135 2.49996 13.9998 5.18625 13.9998 8.49996C13.9998 11.8137 11.3135 14.5 7.99984 14.5C4.68613 14.5 1.99984 11.8137 1.99984 8.49996Z" fill="#787A80"/>
</svg>
