<svg width="12" height="16" viewBox="0 0 12 16" fill="none" xmlns="http://www.w3.org/2000/svg">
<path fill-rule="evenodd" clip-rule="evenodd" d="M3.33325 9.00001C3.33325 8.63182 3.63173 8.33334 3.99992 8.33334H7.99992C8.36811 8.33334 8.66659 8.63182 8.66659 9.00001C8.66659 9.3682 8.36811 9.66668 7.99992 9.66668H3.99992C3.63173 9.66668 3.33325 9.3682 3.33325 9.00001Z" fill="#9A9CA5"/>
<path fill-rule="evenodd" clip-rule="evenodd" d="M3.33325 11.5C3.33325 11.1318 3.63173 10.8333 3.99992 10.8333H5.99992C6.36811 10.8333 6.66659 11.1318 6.66659 11.5C6.66659 11.8682 6.36811 12.1667 5.99992 12.1667H3.99992C3.63173 12.1667 3.33325 11.8682 3.33325 11.5Z" fill="#9A9CA5"/>
<path fill-rule="evenodd" clip-rule="evenodd" d="M4.02853 1.02861C4.15355 0.903581 4.32312 0.833344 4.49993 0.833344H8.99994C10.4727 0.833344 11.6666 2.02725 11.6666 3.50001L11.6666 12.5C11.6666 13.9728 10.4727 15.1667 8.99994 15.1667H2.99992C1.52716 15.1667 0.333248 13.9728 0.333252 12.5L0.333268 5.00001C0.333269 4.8232 0.403507 4.65363 0.528531 4.52861L4.02853 1.02861ZM4.33325 2.60951V4.83334H2.10941L4.33325 2.60951ZM1.6666 6.16668L1.66659 12.5C1.66658 13.2364 2.26354 13.8333 2.99992 13.8333H8.99994C9.73632 13.8333 10.3333 13.2364 10.3333 12.5L10.3333 3.50001C10.3333 2.76363 9.73632 2.16668 8.99994 2.16668H5.66658V5.50001C5.66658 5.8682 5.3681 6.16668 4.99991 6.16668H1.6666Z" fill="#9A9CA5"/>
</svg>
