<svg width="16" height="16" viewBox="0 0 16 16" fill="none" xmlns="http://www.w3.org/2000/svg">
<path fill-rule="evenodd" clip-rule="evenodd" d="M4.13333 4.26666C4.13333 2.13116 5.8645 0.399994 8 0.399994C10.1355 0.399994 11.8667 2.13116 11.8667 4.26666V7.46666C11.8667 9.60216 10.1355 11.3333 8 11.3333C5.8645 11.3333 4.13333 9.60216 4.13333 7.46666V4.26666ZM8 1.73333C6.60088 1.73333 5.46667 2.86754 5.46667 4.26666V7.46666C5.46667 8.86578 6.60088 9.99999 8 9.99999C9.39912 9.99999 10.5333 8.86578 10.5333 7.46666V4.26666C10.5333 2.86754 9.39912 1.73333 8 1.73333Z" fill="#9A9CA5"/>
<path fill-rule="evenodd" clip-rule="evenodd" d="M2.66667 5.73333C3.03486 5.73333 3.33333 6.0318 3.33333 6.39999V7.46666C3.33333 10.044 5.42267 12.1333 8 12.1333C10.5773 12.1333 12.6667 10.044 12.6667 7.46666V6.39999C12.6667 6.0318 12.9651 5.73333 13.3333 5.73333C13.7015 5.73333 14 6.0318 14 6.39999V7.46666C14 10.7804 11.3137 13.4667 8 13.4667C4.68629 13.4667 2 10.7804 2 7.46666V6.39999C2 6.0318 2.29848 5.73333 2.66667 5.73333Z" fill="#9A9CA5"/>
<path fill-rule="evenodd" clip-rule="evenodd" d="M8 12.6667C8.36819 12.6667 8.66667 12.9651 8.66667 13.3333V14.2667H10.1333C10.5015 14.2667 10.8 14.5651 10.8 14.9333C10.8 15.3015 10.5015 15.6 10.1333 15.6H5.86667C5.49848 15.6 5.2 15.3015 5.2 14.9333C5.2 14.5651 5.49848 14.2667 5.86667 14.2667H7.33333V13.3333C7.33333 12.9651 7.63181 12.6667 8 12.6667Z" fill="#9A9CA5"/>
</svg>
