<svg width="18" height="18" viewBox="0 0 18 18" fill="none" xmlns="http://www.w3.org/2000/svg">
<path fill-rule="evenodd" clip-rule="evenodd" d="M9.0002 1.70833C7.38937 1.70833 6.08353 3.01417 6.08353 4.625C6.08353 6.23583 7.38937 7.54167 9.0002 7.54167C10.611 7.54167 11.9169 6.23583 11.9169 4.625C11.9169 3.01417 10.611 1.70833 9.0002 1.70833ZM4.41686 4.625C4.41686 2.0937 6.46889 0.0416679 9.0002 0.0416679C11.5315 0.0416679 13.5835 2.0937 13.5835 4.625C13.5835 7.15631 11.5315 9.20833 9.0002 9.20833C6.46889 9.20833 4.41686 7.15631 4.41686 4.625Z" fill="#424551"/>
<path fill-rule="evenodd" clip-rule="evenodd" d="M4.08691 11.7083C3.50914 11.7083 3.05756 11.9897 2.87424 12.3939C2.62053 12.9533 2.39078 13.6193 2.33656 14.251C2.31233 14.5334 2.43007 14.7415 2.5923 14.8422C3.44993 15.375 5.43719 16.2917 9.00019 16.2917C12.5632 16.2917 14.5505 15.375 15.4081 14.8422C15.5703 14.7415 15.6881 14.5334 15.6638 14.251C15.6096 13.6193 15.3799 12.9533 15.1261 12.3939C14.9428 11.9897 14.4912 11.7083 13.9135 11.7083H4.08691ZM1.35639 11.7055C1.86301 10.5884 2.99429 10.0417 4.08691 10.0417H13.9135C15.0061 10.0417 16.1374 10.5884 16.644 11.7055C16.935 12.3471 17.2472 13.2096 17.3244 14.1084C17.3946 14.927 17.0544 15.7816 16.2876 16.258C15.1596 16.9587 12.8665 17.9583 9.00019 17.9583C5.13386 17.9583 2.84078 16.9587 1.71283 16.258C0.945947 15.7816 0.605747 14.927 0.676001 14.1084C0.753149 13.2096 1.0654 12.3471 1.35639 11.7055Z" fill="#424551"/>
</svg>
