<svg width="16" height="16" viewBox="0 0 16 16" fill="none" xmlns="http://www.w3.org/2000/svg">
<g clip-path="url(#clip0_733_472)">
<path fill-rule="evenodd" clip-rule="evenodd" d="M10.7119 6.94066C11.4102 7.47432 11.4102 8.52571 10.7119 9.05937L7.65865 11.393C6.78126 12.0636 5.51566 11.438 5.51566 10.3336V5.66639C5.51566 4.56208 6.78126 3.93645 7.65865 4.60704L10.7119 6.94066ZM9.90228 8.00002L6.84899 5.66639L6.84899 10.3336L9.90228 8.00002Z" fill="#9A9CA5"/>
<path fill-rule="evenodd" clip-rule="evenodd" d="M8.00008 1.99999C4.68637 1.99999 2.00008 4.68628 2.00008 7.99999C2.00008 11.3137 4.68637 14 8.00008 14C11.3138 14 14.0001 11.3137 14.0001 7.99999C14.0001 4.68628 11.3138 1.99999 8.00008 1.99999ZM0.666748 7.99999C0.666748 3.9499 3.94999 0.666656 8.00008 0.666656C12.0502 0.666656 15.3334 3.9499 15.3334 7.99999C15.3334 12.0501 12.0502 15.3333 8.00008 15.3333C3.94999 15.3333 0.666748 12.0501 0.666748 7.99999Z" fill="#9A9CA5"/>
</g>
<defs>
<clipPath id="clip0_733_472">
<rect width="16" height="16" fill="white"/>
</clipPath>
</defs>
</svg>
