<svg width="16" height="14" viewBox="0 0 16 14" fill="none" xmlns="http://www.w3.org/2000/svg">
<path fill-rule="evenodd" clip-rule="evenodd" d="M7.9995 12.2717C4.93345 10.5255 3.22342 8.7898 2.39651 7.28385C1.55017 5.74252 1.62401 4.44434 2.09365 3.52298C3.05896 1.62916 5.80403 1.02357 7.47654 3.13889L7.99946 3.80026L8.52242 3.13893C10.1952 1.02352 12.9404 1.6292 13.9057 3.52298C14.3754 4.44433 14.4492 5.7425 13.6028 7.28384C12.7758 8.78979 11.0657 10.5255 7.9995 12.2717ZM7.99952 1.7375C5.64671 -0.498237 2.17579 0.42579 0.905732 2.91747C0.208704 4.28495 0.199183 6.05236 1.22778 7.9256C2.24724 9.78222 4.27985 11.7419 7.677 13.6196L7.99949 13.7979L8.32198 13.6196C11.7193 11.742 13.752 9.78223 14.7715 7.92562C15.8002 6.05239 15.7907 4.28496 15.0936 2.91747C13.8236 0.425742 10.3525 -0.498204 7.99952 1.7375Z" fill="#FF3F3A"/>
</svg>
