<svg width="56" height="16" viewBox="0 0 56 16" fill="none" xmlns="http://www.w3.org/2000/svg">
<path d="M0.6 7.9C0.6 6.5 0.88 5.25333 1.44 4.16C2.01333 3.06667 2.82667 2.22 3.88 1.62C4.93333 1.00667 6.17333 0.699999 7.6 0.699999C8.82667 0.699999 9.92 0.933333 10.88 1.4C11.8533 1.85333 12.64 2.5 13.24 3.34C13.8533 4.18 14.26 5.16 14.46 6.28H9.78C9.56667 5.81333 9.26 5.45333 8.86 5.2C8.47333 4.93333 8.02667 4.8 7.52 4.8C6.77333 4.8 6.18 5.08 5.74 5.64C5.31333 6.2 5.1 6.95333 5.1 7.9C5.1 8.84667 5.31333 9.6 5.74 10.16C6.18 10.72 6.77333 11 7.52 11C8.02667 11 8.47333 10.8733 8.86 10.62C9.26 10.3533 9.56667 9.98667 9.78 9.52H14.46C14.26 10.64 13.8533 11.62 13.24 12.46C12.64 13.3 11.8533 13.9533 10.88 14.42C9.92 14.8733 8.82667 15.1 7.6 15.1C6.17333 15.1 4.93333 14.8 3.88 14.2C2.82667 13.5867 2.01333 12.7333 1.44 11.64C0.88 10.5467 0.6 9.3 0.6 7.9ZM21.9586 15.14C20.6253 15.14 19.3986 14.8267 18.2786 14.2C17.1719 13.5733 16.2919 12.7067 15.6386 11.6C14.9853 10.4933 14.6586 9.24667 14.6586 7.86C14.6586 6.47333 14.9853 5.22667 15.6386 4.12C16.2919 3.01333 17.1719 2.15333 18.2786 1.54C19.3986 0.913333 20.6253 0.599999 21.9586 0.599999C23.2919 0.599999 24.5119 0.913333 25.6186 1.54C26.7253 2.15333 27.5986 3.01333 28.2386 4.12C28.8919 5.22667 29.2186 6.47333 29.2186 7.86C29.2186 9.24667 28.8919 10.4933 28.2386 11.6C27.5986 12.7067 26.7186 13.5733 25.5986 14.2C24.4919 14.8267 23.2786 15.14 21.9586 15.14ZM21.9586 11C22.8386 11 23.5186 10.72 23.9986 10.16C24.4786 9.58667 24.7186 8.82 24.7186 7.86C24.7186 6.88667 24.4786 6.12 23.9986 5.56C23.5186 4.98667 22.8386 4.7 21.9586 4.7C21.0653 4.7 20.3786 4.98667 19.8986 5.56C19.4186 6.12 19.1786 6.88667 19.1786 7.86C19.1786 8.82 19.4186 9.58667 19.8986 10.16C20.3786 10.72 21.0653 11 21.9586 11Z" fill="#2E2C4C"/>
<path d="M0.6 7.9C0.6 6.5 0.88 5.25333 1.44 4.16C2.01333 3.06667 2.82667 2.22 3.88 1.62C4.93333 1.00667 6.17333 0.699999 7.6 0.699999C8.82667 0.699999 9.92 0.933333 10.88 1.4C11.8533 1.85333 12.64 2.5 13.24 3.34C13.8533 4.18 14.26 5.16 14.46 6.28H9.78C9.56667 5.81333 9.26 5.45333 8.86 5.2C8.47333 4.93333 8.02667 4.8 7.52 4.8C6.77333 4.8 6.18 5.08 5.74 5.64C5.31333 6.2 5.1 6.95333 5.1 7.9C5.1 8.84667 5.31333 9.6 5.74 10.16C6.18 10.72 6.77333 11 7.52 11C8.02667 11 8.47333 10.8733 8.86 10.62C9.26 10.3533 9.56667 9.98667 9.78 9.52H14.46C14.26 10.64 13.8533 11.62 13.24 12.46C12.64 13.3 11.8533 13.9533 10.88 14.42C9.92 14.8733 8.82667 15.1 7.6 15.1C6.17333 15.1 4.93333 14.8 3.88 14.2C2.82667 13.5867 2.01333 12.7333 1.44 11.64C0.88 10.5467 0.6 9.3 0.6 7.9ZM21.9586 15.14C20.6253 15.14 19.3986 14.8267 18.2786 14.2C17.1719 13.5733 16.2919 12.7067 15.6386 11.6C14.9853 10.4933 14.6586 9.24667 14.6586 7.86C14.6586 6.47333 14.9853 5.22667 15.6386 4.12C16.2919 3.01333 17.1719 2.15333 18.2786 1.54C19.3986 0.913333 20.6253 0.599999 21.9586 0.599999C23.2919 0.599999 24.5119 0.913333 25.6186 1.54C26.7253 2.15333 27.5986 3.01333 28.2386 4.12C28.8919 5.22667 29.2186 6.47333 29.2186 7.86C29.2186 9.24667 28.8919 10.4933 28.2386 11.6C27.5986 12.7067 26.7186 13.5733 25.5986 14.2C24.4919 14.8267 23.2786 15.14 21.9586 15.14ZM21.9586 11C22.8386 11 23.5186 10.72 23.9986 10.16C24.4786 9.58667 24.7186 8.82 24.7186 7.86C24.7186 6.88667 24.4786 6.12 23.9986 5.56C23.5186 4.98667 22.8386 4.7 21.9586 4.7C21.0653 4.7 20.3786 4.98667 19.8986 5.56C19.4186 6.12 19.1786 6.88667 19.1786 7.86C19.1786 8.82 19.4186 9.58667 19.8986 10.16C20.3786 10.72 21.0653 11 21.9586 11Z" fill="black" fill-opacity="0.2"/>
<path d="M41.7403 15H39.4603L32.6003 4.62V15H30.3203V1.08H32.6003L39.4603 11.44V1.08H41.7403V15ZM48.2744 1.1C49.7544 1.1 51.0477 1.38667 52.1544 1.96C53.2744 2.52 54.1344 3.33333 54.7344 4.4C55.3477 5.45333 55.6544 6.68667 55.6544 8.1C55.6544 9.51333 55.3477 10.74 54.7344 11.78C54.1344 12.82 53.2744 13.62 52.1544 14.18C51.0477 14.7267 49.7544 15 48.2744 15H43.7344V1.1H48.2744ZM48.2744 13.14C49.901 13.14 51.1477 12.7 52.0144 11.82C52.881 10.94 53.3144 9.7 53.3144 8.1C53.3144 6.48667 52.881 5.22667 52.0144 4.32C51.1477 3.41333 49.901 2.96 48.2744 2.96H46.0144V13.14H48.2744Z" fill="#7368FE"/>
</svg>
