<svg width="212" height="57" viewBox="0 0 212 57" fill="none" xmlns="http://www.w3.org/2000/svg">
<path d="M53 26.3491C53 39.7133 42.031 57 28.5 57C14.969 57 4 39.7133 4 26.3491C4 12.9848 14.969 0 28.5 0C42.031 0 53 12.9848 53 26.3491Z" fill="url(#paint0_linear_495_90)"/>
<path d="M23.8955 13.1064L22.665 22.3789C22.2402 22.2617 21.8154 22.1812 21.3906 22.1372C20.9658 22.0933 20.541 22.0713 20.1162 22.0713C19.0322 22.0713 17.9995 22.2178 17.0181 22.5107C16.0366 22.7891 15.165 23.2212 14.4033 23.8071C13.6562 24.3931 13.0557 25.1255 12.6016 26.0044C12.1621 26.8833 11.9424 27.916 11.9424 29.1025C11.9424 29.8643 12.0596 30.5234 12.2939 31.0801C12.543 31.6367 12.8872 32.0981 13.3267 32.4644C13.7661 32.8306 14.2861 33.1016 14.8867 33.2773C15.4873 33.4531 16.1465 33.541 16.8643 33.541C17.4062 33.541 17.9702 33.4824 18.5562 33.3652C19.1421 33.248 19.7207 33.0942 20.292 32.9038C20.8633 32.7134 21.4199 32.4937 21.9619 32.2446C22.5039 31.9956 23.002 31.7393 23.4561 31.4756L22.5771 41.8027C22.0059 42.0957 21.3833 42.3594 20.7095 42.5938C20.0503 42.8135 19.3691 43.0112 18.666 43.187C17.9629 43.3481 17.2598 43.4727 16.5566 43.5605C15.8535 43.6484 15.1797 43.6924 14.5352 43.6924C12.6748 43.6924 10.939 43.3481 9.32764 42.6597C7.71631 41.9712 6.31738 41.0264 5.13086 39.8252C3.94434 38.624 3.00684 37.2104 2.31836 35.5845C1.64453 33.9438 1.30762 32.1787 1.30762 30.2891C1.30762 27.7842 1.6665 25.4258 2.38428 23.2139C3.10205 20.9873 4.15674 19.0391 5.54834 17.3691C6.93994 15.6992 8.66113 14.3809 10.7119 13.4141C12.7773 12.4473 15.1504 11.9639 17.8311 11.9639C18.8418 11.9639 19.8745 12.0444 20.9292 12.2056C21.9985 12.3667 22.9873 12.667 23.8955 13.1064ZM51.8008 39.5176C51.1123 40.3818 50.2627 41.1362 49.252 41.7808C48.2412 42.4253 47.1572 42.96 46 43.3848C44.8428 43.8096 43.6562 44.1245 42.4404 44.3296C41.2246 44.5493 40.0674 44.6592 38.9688 44.6592C36.8447 44.6592 34.8892 44.2783 33.1021 43.5166C31.3149 42.7549 29.7695 41.7075 28.4658 40.3745C27.1768 39.0269 26.166 37.4448 25.4336 35.6284C24.7012 33.812 24.335 31.8564 24.335 29.7617C24.335 28.165 24.5181 26.605 24.8843 25.0815C25.2505 23.5435 25.7705 22.1006 26.4443 20.7529C27.1328 19.3906 27.9678 18.1455 28.9492 17.0176C29.9307 15.875 31.0439 14.8936 32.2891 14.0732C33.5342 13.2529 34.8965 12.6157 36.376 12.1616C37.8555 11.7075 39.4375 11.4805 41.1221 11.4805C41.752 11.4805 42.4258 11.5098 43.1436 11.5684C43.8613 11.6123 44.5718 11.7002 45.2749 11.832C45.9927 11.9492 46.6885 12.1177 47.3623 12.3374C48.0361 12.5571 48.6514 12.8281 49.208 13.1504L48.5928 21.5439C47.7725 21.2363 46.9229 21.0312 46.0439 20.9287C45.1797 20.8115 44.3301 20.7529 43.4951 20.7529C42.3232 20.7529 41.2246 20.936 40.1992 21.3022C39.1885 21.6538 38.3022 22.1665 37.5405 22.8403C36.7935 23.5142 36.2002 24.3345 35.7607 25.3013C35.3213 26.2681 35.1016 27.3594 35.1016 28.5752C35.1016 29.3369 35.2041 30.0767 35.4092 30.7944C35.6143 31.4976 35.9219 32.1274 36.332 32.6841C36.7568 33.2261 37.2769 33.6655 37.8921 34.0024C38.522 34.3394 39.2471 34.5078 40.0674 34.5078C40.624 34.5078 41.1953 34.4346 41.7812 34.2881C42.3818 34.1416 42.8945 33.8926 43.3193 33.541L43.4072 31.8271L38.1338 31.7393L38.3975 25.1475C40.5801 25.0742 42.7627 25.0156 44.9453 24.9717C47.1279 24.9131 49.3252 24.8398 51.5371 24.752L51.8008 39.5176ZM87.8579 36.1777C87.8579 37.3936 87.6309 38.4409 87.1768 39.3198C86.7373 40.1987 86.144 40.9458 85.397 41.561C84.6499 42.1763 83.7856 42.6816 82.8042 43.0771C81.8374 43.458 80.8267 43.7583 79.772 43.978C78.7173 44.1978 77.6553 44.3442 76.5859 44.4175C75.5312 44.4907 74.5425 44.5273 73.6196 44.5273C72.7114 44.5273 71.7666 44.4907 70.7852 44.4175C69.8184 44.3589 68.8516 44.249 67.8848 44.0879C66.918 43.9268 65.9658 43.7144 65.0283 43.4507C64.0908 43.1724 63.2046 42.8281 62.3696 42.418L62.3257 14.1172C63.146 13.7803 64.0176 13.48 64.9404 13.2163C65.8633 12.938 66.8008 12.7109 67.7529 12.5352C68.7197 12.3447 69.6792 12.2056 70.6313 12.1177C71.5835 12.0151 72.5063 11.9639 73.3999 11.9639C74.4399 11.9639 75.4873 12.0298 76.542 12.1616C77.6113 12.2935 78.6367 12.5132 79.6182 12.8208C80.5996 13.1284 81.5151 13.5312 82.3647 14.0293C83.2144 14.5127 83.9541 15.1133 84.584 15.8311C85.2285 16.5488 85.7266 17.3838 86.0781 18.3359C86.4443 19.2881 86.6274 20.3867 86.6274 21.6318C86.6274 22.4521 86.5103 23.2212 86.2759 23.939C86.0415 24.6567 85.7046 25.3013 85.2651 25.8726C84.8257 26.4438 84.291 26.9346 83.6611 27.3447C83.0312 27.7402 82.3208 28.0332 81.5298 28.2236C82.4819 28.4727 83.3462 28.8389 84.1226 29.3223C84.9136 29.8057 85.5801 30.3916 86.1221 31.0801C86.6787 31.7686 87.1035 32.5449 87.3965 33.4092C87.7041 34.2734 87.8579 35.1963 87.8579 36.1777ZM76.6958 23.6533C76.6958 23.2285 76.6079 22.8696 76.4321 22.5767C76.2563 22.269 76.0366 22.02 75.7729 21.8296C75.5239 21.6392 75.2456 21.5 74.938 21.4121C74.645 21.3242 74.3813 21.2803 74.147 21.2803C73.854 21.2803 73.5684 21.3242 73.29 21.4121C73.0117 21.5 72.7407 21.6025 72.4771 21.7197L72.3452 26.5977C72.6821 26.5977 73.0996 26.5684 73.5977 26.5098C74.0957 26.4512 74.5718 26.3267 75.0259 26.1362C75.4946 25.9312 75.8901 25.6382 76.2124 25.2573C76.5347 24.8618 76.6958 24.3271 76.6958 23.6533ZM73.5757 30.8164C73.1509 30.8164 72.7407 30.8604 72.3452 30.9482L72.2573 35.958C72.4771 36.002 72.6895 36.0459 72.8945 36.0898C73.1143 36.1191 73.3267 36.1338 73.5317 36.1338C73.8394 36.1338 74.1763 36.1045 74.5425 36.0459C74.9087 35.9727 75.2529 35.8408 75.5752 35.6504C75.8975 35.4453 76.1611 35.1743 76.3662 34.8374C76.5859 34.5005 76.6958 34.0537 76.6958 33.4971C76.6958 32.9404 76.5859 32.4863 76.3662 32.1348C76.1611 31.7832 75.9048 31.5122 75.5972 31.3218C75.2896 31.1167 74.9526 30.9849 74.5864 30.9263C74.2202 30.853 73.8833 30.8164 73.5757 30.8164ZM108.358 31.4756L107.436 41.2314L88.9346 42.6816C89.0225 37.5693 89.1177 32.4863 89.2202 27.4326C89.3374 22.3789 89.4766 17.2959 89.6377 12.1836H101.063C100.727 15.3916 100.404 18.5996 100.097 21.8076C99.7891 25.001 99.5693 28.2236 99.4375 31.4756C100.126 31.5049 100.807 31.5195 101.481 31.5195C102.155 31.5195 102.836 31.5195 103.524 31.5195C104.345 31.5195 105.15 31.5122 105.941 31.4976C106.732 31.4829 107.538 31.4756 108.358 31.4756ZM130.199 12.3154C130.111 13.6924 130.031 15.0547 129.958 16.4023C129.884 17.75 129.789 19.1123 129.672 20.4893L120.355 20.9727L120.136 23.7412H126.684L126.2 30.5527L119.608 30.7725L119.389 33.9805H124.838H128.705C128.617 35.5918 128.522 37.1958 128.419 38.7925C128.332 40.3745 128.251 41.9639 128.178 43.5605L109.237 44L109.94 12.3154H130.199ZM160.851 12.4912L159.269 42.2861L147.755 43.3408L141.603 27.3887L140.636 43.6484H130.749L131.54 12.4912L142.526 11.9639L150.128 27.7842L150.48 12.8428L160.851 12.4912ZM187.548 26.5537C187.548 28.6045 187.284 30.4575 186.757 32.1128C186.229 33.7534 185.49 35.2183 184.538 36.5073C183.6 37.7817 182.479 38.8804 181.176 39.8032C179.872 40.7261 178.444 41.4878 176.891 42.0884C175.338 42.6743 173.683 43.1138 171.925 43.4067C170.182 43.6851 168.388 43.8242 166.542 43.8242C165.854 43.8242 165.18 43.8096 164.521 43.7803C163.861 43.7363 163.188 43.6777 162.499 43.6045L163.114 14.1172C164.726 13.6045 166.381 13.2456 168.08 13.0405C169.794 12.8208 171.493 12.7109 173.178 12.7109C175.272 12.7109 177.199 13.0259 178.957 13.6558C180.714 14.2856 182.23 15.1938 183.505 16.3804C184.779 17.5669 185.768 19.0171 186.471 20.731C187.189 22.4448 187.548 24.3857 187.548 26.5537ZM178.539 27.96C178.554 27.1689 178.466 26.4072 178.275 25.6748C178.1 24.9424 177.799 24.2979 177.375 23.7412C176.964 23.1699 176.437 22.7158 175.792 22.3789C175.148 22.0273 174.379 21.8369 173.485 21.8076L172.606 35.4307C173.485 35.2988 174.284 35.0132 175.001 34.5737C175.719 34.1196 176.334 33.5703 176.847 32.9258C177.375 32.2666 177.777 31.5415 178.056 30.7505C178.349 29.9448 178.51 29.1172 178.539 28.2676V27.96ZM211.388 32.3105C211.388 34.3174 211.037 36.0752 210.333 37.584C209.645 39.0781 208.693 40.3232 207.477 41.3193C206.276 42.3154 204.862 43.0625 203.236 43.5605C201.625 44.0586 199.889 44.3076 198.029 44.3076C197.311 44.3076 196.52 44.2124 195.656 44.022C194.806 43.8315 193.942 43.5972 193.063 43.3188C192.184 43.0259 191.334 42.7183 190.514 42.396C189.708 42.0591 188.991 41.7441 188.361 41.4512L189.328 32.3984C190.573 33.1455 191.95 33.7168 193.458 34.1123C194.982 34.4932 196.476 34.6836 197.941 34.6836C198.219 34.6836 198.556 34.6763 198.952 34.6616C199.347 34.6323 199.721 34.5664 200.072 34.4639C200.438 34.3467 200.746 34.1782 200.995 33.9585C201.244 33.7388 201.369 33.4238 201.369 33.0137C201.369 32.7354 201.281 32.501 201.105 32.3105C200.929 32.1055 200.702 31.9443 200.424 31.8271C200.146 31.6953 199.831 31.6001 199.479 31.5415C199.127 31.4683 198.783 31.417 198.446 31.3877C198.109 31.3584 197.794 31.3438 197.501 31.3438C197.208 31.3438 196.974 31.3438 196.798 31.3438C195.539 31.3438 194.389 31.124 193.349 30.6846C192.323 30.2451 191.437 29.6372 190.69 28.8608C189.958 28.0698 189.386 27.1396 188.976 26.0703C188.566 24.9863 188.361 23.8145 188.361 22.5547C188.361 20.8262 188.705 19.2808 189.394 17.9185C190.097 16.5415 191.027 15.377 192.184 14.4248C193.356 13.458 194.696 12.7183 196.205 12.2056C197.714 11.6929 199.274 11.4365 200.885 11.4365C201.603 11.4365 202.343 11.4658 203.104 11.5244C203.866 11.5684 204.621 11.6562 205.368 11.7881C206.129 11.9199 206.869 12.0884 207.587 12.2935C208.305 12.4985 208.986 12.7549 209.63 13.0625L208.795 21.9834C207.799 21.6465 206.752 21.3682 205.653 21.1484C204.569 20.9141 203.507 20.7969 202.467 20.7969C202.277 20.7969 202.028 20.8042 201.72 20.8188C201.427 20.8188 201.112 20.8408 200.775 20.8848C200.453 20.9141 200.124 20.9653 199.787 21.0386C199.45 21.1118 199.149 21.2144 198.886 21.3462C198.622 21.4634 198.41 21.6245 198.249 21.8296C198.087 22.0347 198.014 22.2764 198.029 22.5547C198.043 22.877 198.161 23.1406 198.38 23.3457C198.615 23.5361 198.908 23.6899 199.259 23.8071C199.625 23.9097 200.021 23.9829 200.446 24.0269C200.885 24.0708 201.317 24.1001 201.742 24.1147C202.167 24.1147 202.562 24.1147 202.929 24.1147C203.295 24.1001 203.595 24.1074 203.83 24.1367C205.001 24.21 206.056 24.459 206.994 24.8838C207.931 25.3086 208.722 25.8726 209.367 26.5757C210.026 27.2788 210.524 28.1211 210.861 29.1025C211.212 30.0693 211.388 31.1387 211.388 32.3105Z" fill="url(#paint1_linear_495_90)"/>
<mask id="path-3-outside-1_495_90" maskUnits="userSpaceOnUse" x="0" y="10" width="53" height="36" fill="black">
<rect fill="white" y="10" width="53" height="36"/>
<path d="M23.8955 13.1064L22.665 22.3789C22.2402 22.2617 21.8154 22.1812 21.3906 22.1372C20.9658 22.0933 20.541 22.0713 20.1162 22.0713C19.0322 22.0713 17.9995 22.2178 17.0181 22.5107C16.0366 22.7891 15.165 23.2212 14.4033 23.8071C13.6562 24.3931 13.0557 25.1255 12.6016 26.0044C12.1621 26.8833 11.9424 27.916 11.9424 29.1025C11.9424 29.8643 12.0596 30.5234 12.2939 31.0801C12.543 31.6367 12.8872 32.0981 13.3267 32.4644C13.7661 32.8306 14.2861 33.1016 14.8867 33.2773C15.4873 33.4531 16.1465 33.541 16.8643 33.541C17.4062 33.541 17.9702 33.4824 18.5562 33.3652C19.1421 33.248 19.7207 33.0942 20.292 32.9038C20.8633 32.7134 21.4199 32.4937 21.9619 32.2446C22.5039 31.9956 23.002 31.7393 23.4561 31.4756L22.5771 41.8027C22.0059 42.0957 21.3833 42.3594 20.7095 42.5938C20.0503 42.8135 19.3691 43.0112 18.666 43.187C17.9629 43.3481 17.2598 43.4727 16.5566 43.5605C15.8535 43.6484 15.1797 43.6924 14.5352 43.6924C12.6748 43.6924 10.939 43.3481 9.32764 42.6597C7.71631 41.9712 6.31738 41.0264 5.13086 39.8252C3.94434 38.624 3.00684 37.2104 2.31836 35.5845C1.64453 33.9438 1.30762 32.1787 1.30762 30.2891C1.30762 27.7842 1.6665 25.4258 2.38428 23.2139C3.10205 20.9873 4.15674 19.0391 5.54834 17.3691C6.93994 15.6992 8.66113 14.3809 10.7119 13.4141C12.7773 12.4473 15.1504 11.9639 17.8311 11.9639C18.8418 11.9639 19.8745 12.0444 20.9292 12.2056C21.9985 12.3667 22.9873 12.667 23.8955 13.1064ZM51.8008 39.5176C51.1123 40.3818 50.2627 41.1362 49.252 41.7808C48.2412 42.4253 47.1572 42.96 46 43.3848C44.8428 43.8096 43.6562 44.1245 42.4404 44.3296C41.2246 44.5493 40.0674 44.6592 38.9688 44.6592C36.8447 44.6592 34.8892 44.2783 33.1021 43.5166C31.3149 42.7549 29.7695 41.7075 28.4658 40.3745C27.1768 39.0269 26.166 37.4448 25.4336 35.6284C24.7012 33.812 24.335 31.8564 24.335 29.7617C24.335 28.165 24.5181 26.605 24.8843 25.0815C25.2505 23.5435 25.7705 22.1006 26.4443 20.7529C27.1328 19.3906 27.9678 18.1455 28.9492 17.0176C29.9307 15.875 31.0439 14.8936 32.2891 14.0732C33.5342 13.2529 34.8965 12.6157 36.376 12.1616C37.8555 11.7075 39.4375 11.4805 41.1221 11.4805C41.752 11.4805 42.4258 11.5098 43.1436 11.5684C43.8613 11.6123 44.5718 11.7002 45.2749 11.832C45.9927 11.9492 46.6885 12.1177 47.3623 12.3374C48.0361 12.5571 48.6514 12.8281 49.208 13.1504L48.5928 21.5439C47.7725 21.2363 46.9229 21.0312 46.0439 20.9287C45.1797 20.8115 44.3301 20.7529 43.4951 20.7529C42.3232 20.7529 41.2246 20.936 40.1992 21.3022C39.1885 21.6538 38.3022 22.1665 37.5405 22.8403C36.7935 23.5142 36.2002 24.3345 35.7607 25.3013C35.3213 26.2681 35.1016 27.3594 35.1016 28.5752C35.1016 29.3369 35.2041 30.0767 35.4092 30.7944C35.6143 31.4976 35.9219 32.1274 36.332 32.6841C36.7568 33.2261 37.2769 33.6655 37.8921 34.0024C38.522 34.3394 39.2471 34.5078 40.0674 34.5078C40.624 34.5078 41.1953 34.4346 41.7812 34.2881C42.3818 34.1416 42.8945 33.8926 43.3193 33.541L43.4072 31.8271L38.1338 31.7393L38.3975 25.1475C40.5801 25.0742 42.7627 25.0156 44.9453 24.9717C47.1279 24.9131 49.3252 24.8398 51.5371 24.752L51.8008 39.5176Z"/>
</mask>
<path d="M23.8955 13.1064L22.665 22.3789C22.2402 22.2617 21.8154 22.1812 21.3906 22.1372C20.9658 22.0933 20.541 22.0713 20.1162 22.0713C19.0322 22.0713 17.9995 22.2178 17.0181 22.5107C16.0366 22.7891 15.165 23.2212 14.4033 23.8071C13.6562 24.3931 13.0557 25.1255 12.6016 26.0044C12.1621 26.8833 11.9424 27.916 11.9424 29.1025C11.9424 29.8643 12.0596 30.5234 12.2939 31.0801C12.543 31.6367 12.8872 32.0981 13.3267 32.4644C13.7661 32.8306 14.2861 33.1016 14.8867 33.2773C15.4873 33.4531 16.1465 33.541 16.8643 33.541C17.4062 33.541 17.9702 33.4824 18.5562 33.3652C19.1421 33.248 19.7207 33.0942 20.292 32.9038C20.8633 32.7134 21.4199 32.4937 21.9619 32.2446C22.5039 31.9956 23.002 31.7393 23.4561 31.4756L22.5771 41.8027C22.0059 42.0957 21.3833 42.3594 20.7095 42.5938C20.0503 42.8135 19.3691 43.0112 18.666 43.187C17.9629 43.3481 17.2598 43.4727 16.5566 43.5605C15.8535 43.6484 15.1797 43.6924 14.5352 43.6924C12.6748 43.6924 10.939 43.3481 9.32764 42.6597C7.71631 41.9712 6.31738 41.0264 5.13086 39.8252C3.94434 38.624 3.00684 37.2104 2.31836 35.5845C1.64453 33.9438 1.30762 32.1787 1.30762 30.2891C1.30762 27.7842 1.6665 25.4258 2.38428 23.2139C3.10205 20.9873 4.15674 19.0391 5.54834 17.3691C6.93994 15.6992 8.66113 14.3809 10.7119 13.4141C12.7773 12.4473 15.1504 11.9639 17.8311 11.9639C18.8418 11.9639 19.8745 12.0444 20.9292 12.2056C21.9985 12.3667 22.9873 12.667 23.8955 13.1064ZM51.8008 39.5176C51.1123 40.3818 50.2627 41.1362 49.252 41.7808C48.2412 42.4253 47.1572 42.96 46 43.3848C44.8428 43.8096 43.6562 44.1245 42.4404 44.3296C41.2246 44.5493 40.0674 44.6592 38.9688 44.6592C36.8447 44.6592 34.8892 44.2783 33.1021 43.5166C31.3149 42.7549 29.7695 41.7075 28.4658 40.3745C27.1768 39.0269 26.166 37.4448 25.4336 35.6284C24.7012 33.812 24.335 31.8564 24.335 29.7617C24.335 28.165 24.5181 26.605 24.8843 25.0815C25.2505 23.5435 25.7705 22.1006 26.4443 20.7529C27.1328 19.3906 27.9678 18.1455 28.9492 17.0176C29.9307 15.875 31.0439 14.8936 32.2891 14.0732C33.5342 13.2529 34.8965 12.6157 36.376 12.1616C37.8555 11.7075 39.4375 11.4805 41.1221 11.4805C41.752 11.4805 42.4258 11.5098 43.1436 11.5684C43.8613 11.6123 44.5718 11.7002 45.2749 11.832C45.9927 11.9492 46.6885 12.1177 47.3623 12.3374C48.0361 12.5571 48.6514 12.8281 49.208 13.1504L48.5928 21.5439C47.7725 21.2363 46.9229 21.0312 46.0439 20.9287C45.1797 20.8115 44.3301 20.7529 43.4951 20.7529C42.3232 20.7529 41.2246 20.936 40.1992 21.3022C39.1885 21.6538 38.3022 22.1665 37.5405 22.8403C36.7935 23.5142 36.2002 24.3345 35.7607 25.3013C35.3213 26.2681 35.1016 27.3594 35.1016 28.5752C35.1016 29.3369 35.2041 30.0767 35.4092 30.7944C35.6143 31.4976 35.9219 32.1274 36.332 32.6841C36.7568 33.2261 37.2769 33.6655 37.8921 34.0024C38.522 34.3394 39.2471 34.5078 40.0674 34.5078C40.624 34.5078 41.1953 34.4346 41.7812 34.2881C42.3818 34.1416 42.8945 33.8926 43.3193 33.541L43.4072 31.8271L38.1338 31.7393L38.3975 25.1475C40.5801 25.0742 42.7627 25.0156 44.9453 24.9717C47.1279 24.9131 49.3252 24.8398 51.5371 24.752L51.8008 39.5176Z" fill="white"/>
<path d="M23.8955 13.1064L24.8868 13.238L24.9819 12.5212L24.3311 12.2063L23.8955 13.1064ZM22.665 22.3789L22.3991 23.3429L23.5054 23.6481L23.6563 22.5105L22.665 22.3789ZM17.0181 22.5107L17.2909 23.4729L17.3041 23.469L17.0181 22.5107ZM14.4033 23.8071L13.7936 23.0145L13.7862 23.0203L14.4033 23.8071ZM12.6016 26.0044L11.7131 25.5453L11.7071 25.5572L12.6016 26.0044ZM12.2939 31.0801L11.3723 31.4681L11.3766 31.4783L11.3811 31.4884L12.2939 31.0801ZM23.4561 31.4756L24.4525 31.5604L24.6154 29.6461L22.9539 30.6108L23.4561 31.4756ZM22.5771 41.8027L23.0335 42.6926L23.5266 42.4397L23.5735 41.8875L22.5771 41.8027ZM20.7095 42.5938L21.0257 43.5425L21.038 43.5382L20.7095 42.5938ZM18.666 43.187L18.8894 44.1617L18.899 44.1595L18.9086 44.1572L18.666 43.187ZM2.31836 35.5845L1.39329 35.9644L1.39751 35.9744L2.31836 35.5845ZM2.38428 23.2139L3.33545 23.5225L3.33605 23.5207L2.38428 23.2139ZM10.7119 13.4141L10.288 12.5084L10.2855 12.5095L10.7119 13.4141ZM20.9292 12.2056L20.7782 13.1941L20.7802 13.1944L20.9292 12.2056ZM22.9042 12.9749L21.6737 22.2474L23.6563 22.5105L24.8868 13.238L22.9042 12.9749ZM22.931 21.4149C22.4545 21.2835 21.9752 21.1923 21.4935 21.1425L21.2877 23.1319C21.6557 23.17 22.026 23.24 22.3991 23.3429L22.931 21.4149ZM21.4935 21.1425C21.0347 21.0951 20.5756 21.0713 20.1162 21.0713V23.0713C20.5065 23.0713 20.8969 23.0915 21.2877 23.1319L21.4935 21.1425ZM20.1162 21.0713C18.941 21.0713 17.8116 21.2303 16.732 21.5525L17.3041 23.469C18.1875 23.2053 19.1234 23.0713 20.1162 23.0713V21.0713ZM16.7452 21.5487C15.6494 21.8594 14.6619 22.3466 13.7936 23.0145L15.013 24.5998C15.6681 24.0958 16.4239 23.7187 17.2909 23.4728L16.7452 21.5487ZM13.7862 23.0203C12.9215 23.6985 12.2303 24.5445 11.7131 25.5454L13.49 26.4634C13.8811 25.7065 14.391 25.0876 15.0205 24.594L13.7862 23.0203ZM11.7071 25.5572C11.1853 26.6008 10.9424 27.7926 10.9424 29.1025H12.9424C12.9424 28.0394 13.1389 27.1658 13.496 26.4516L11.7071 25.5572ZM10.9424 29.1025C10.9424 29.964 11.0746 30.7611 11.3723 31.4681L13.2156 30.692C13.0445 30.2858 12.9424 29.7645 12.9424 29.1025H10.9424ZM11.3811 31.4884C11.6882 32.1749 12.1222 32.7624 12.6865 33.2326L13.9668 31.6961C13.6522 31.4339 13.3977 31.0986 13.2068 30.6717L11.3811 31.4884ZM12.6865 33.2326C13.2408 33.6945 13.8861 34.0264 14.6058 34.2371L15.1676 32.3176C14.6862 32.1767 14.2914 31.9666 13.9668 31.6961L12.6865 33.2326ZM14.6058 34.2371C15.3099 34.4432 16.0651 34.541 16.8643 34.541V32.541C16.2279 32.541 15.6647 32.4631 15.1676 32.3176L14.6058 34.2371ZM16.8643 34.541C17.4784 34.541 18.1083 34.4746 18.7523 34.3458L18.36 32.3847C17.8322 32.4902 17.3341 32.541 16.8643 32.541V34.541ZM18.7523 34.3458C19.3792 34.2204 19.9979 34.0559 20.6082 33.8525L19.9758 31.9551C19.4435 32.1325 18.905 32.2757 18.36 32.3847L18.7523 34.3458ZM20.6082 33.8525C21.2136 33.6507 21.8041 33.4176 22.3794 33.1533L21.5444 31.336C21.0357 31.5697 20.5129 31.7761 19.9758 31.9551L20.6082 33.8525ZM22.3794 33.1533C22.9465 32.8928 23.4732 32.622 23.9582 32.3404L22.9539 30.6108C22.5307 30.8565 22.0613 31.0985 21.5444 31.336L22.3794 33.1533ZM22.4597 31.3908L21.5807 41.7179L23.5735 41.8875L24.4525 31.5604L22.4597 31.3908ZM22.1208 40.9129C21.5951 41.1825 21.0157 41.4285 20.381 41.6493L21.038 43.5382C21.7509 43.2903 22.4166 43.0089 23.0335 42.6926L22.1208 40.9129ZM20.3932 41.6451C19.7594 41.8564 19.1028 42.047 18.4235 42.2169L18.9086 44.1572C19.6354 43.9754 20.3412 43.7706 21.0257 43.5424L20.3932 41.6451ZM18.4426 42.2123C17.7717 42.366 17.1017 42.4846 16.4326 42.5683L16.6807 44.5528C17.4178 44.4607 18.1541 44.3303 18.8894 44.1617L18.4426 42.2123ZM16.4326 42.5683C15.7666 42.6515 15.1344 42.6924 14.5352 42.6924V44.6924C15.225 44.6924 15.9404 44.6454 16.6807 44.5528L16.4326 42.5683ZM14.5352 42.6924C12.8014 42.6924 11.2001 42.3723 9.72055 41.7401L8.93473 43.5792C10.6778 44.324 12.5482 44.6924 14.5352 44.6924V42.6924ZM9.72055 41.7401C8.22385 41.1006 6.93425 40.2279 5.84229 39.1224L4.41943 40.528C5.70051 41.8249 7.20877 42.8418 8.93473 43.5792L9.72055 41.7401ZM5.84229 39.1224C4.7488 38.0154 3.88061 36.7094 3.23921 35.1946L1.39751 35.9744C2.13306 37.7115 3.13987 39.2326 4.41943 40.528L5.84229 39.1224ZM3.24338 35.2046C2.62224 33.6922 2.30762 32.057 2.30762 30.2891H0.307617C0.307617 32.3004 0.666825 34.1955 1.39334 35.9644L3.24338 35.2046ZM2.30762 30.2891C2.30762 27.8809 2.65243 25.6273 3.33545 23.5225L1.4331 22.9052C0.680578 25.2242 0.307617 27.6874 0.307617 30.2891H2.30762ZM3.33605 23.5207C4.01756 21.4066 5.01299 19.5736 6.31656 18.0093L4.78012 16.729C3.30049 18.5045 2.18654 20.568 1.43251 22.907L3.33605 23.5207ZM6.31656 18.0093C7.61082 16.4562 9.21357 15.226 11.1383 14.3186L10.2855 12.5095C8.10869 13.5357 6.26906 14.9422 4.78012 16.729L6.31656 18.0093ZM11.1359 14.3198C13.0473 13.425 15.2714 12.9639 17.8311 12.9639V10.9639C15.0294 10.9639 12.5074 11.4695 10.288 12.5084L11.1359 14.3198ZM17.8311 12.9639C18.7885 12.9639 19.7707 13.0402 20.7782 13.1941L21.0802 11.217C19.9783 11.0487 18.8951 10.9639 17.8311 10.9639V12.9639ZM20.7802 13.1944C21.7572 13.3416 22.6485 13.614 23.4599 14.0066L24.3311 12.2063C23.3261 11.72 22.2398 11.3918 21.0782 11.2167L20.7802 13.1944ZM51.8008 39.5176L52.5829 40.1407L52.807 39.8593L52.8006 39.4997L51.8008 39.5176ZM42.4404 44.3296L42.2741 43.3435L42.2626 43.3455L42.4404 44.3296ZM28.4658 40.3745L27.7431 41.0658L27.7509 41.0737L28.4658 40.3745ZM25.4336 35.6284L24.5062 36.0024L25.4336 35.6284ZM24.8843 25.0815L25.8566 25.3153L25.8571 25.3132L24.8843 25.0815ZM26.4443 20.7529L25.5518 20.3019L25.5499 20.3057L26.4443 20.7529ZM28.9492 17.0176L29.7036 17.674L29.7078 17.6692L28.9492 17.0176ZM43.1436 11.5684L43.0622 12.565L43.0723 12.5659L43.0824 12.5665L43.1436 11.5684ZM45.2749 11.832L45.0906 12.8149L45.1022 12.8171L45.1138 12.819L45.2749 11.832ZM49.208 13.1504L50.2053 13.2235L50.2511 12.5988L49.709 12.285L49.208 13.1504ZM48.5928 21.5439L48.2416 22.4803L49.4924 22.9493L49.5901 21.617L48.5928 21.5439ZM46.0439 20.9287L45.9096 21.9196L45.9188 21.9209L45.9281 21.922L46.0439 20.9287ZM40.1992 21.3022L40.5278 22.2468L40.5356 22.244L40.1992 21.3022ZM37.5405 22.8403L36.8779 22.0913L36.8708 22.0978L37.5405 22.8403ZM35.4092 30.7944L34.4476 31.0692L34.4492 31.0744L35.4092 30.7944ZM36.332 32.6841L35.527 33.2773L35.5358 33.2893L35.545 33.301L36.332 32.6841ZM37.8921 34.0024L37.4118 34.8796L37.4204 34.8842L37.8921 34.0024ZM41.7812 34.2881L41.5443 33.3165L41.5387 33.3179L41.7812 34.2881ZM43.3193 33.541L43.9569 34.3114L44.2955 34.0312L44.318 33.5922L43.3193 33.541ZM43.4072 31.8271L44.4059 31.8784L44.4589 30.8445L43.4239 30.8273L43.4072 31.8271ZM38.1338 31.7393L37.1346 31.6993L37.0937 32.7221L38.1171 32.7391L38.1338 31.7393ZM38.3975 25.1475L38.3639 24.148L37.4354 24.1792L37.3983 25.1075L38.3975 25.1475ZM44.9453 24.9717L44.9654 25.9715L44.9721 25.9713L44.9453 24.9717ZM51.5371 24.752L52.5369 24.7341L52.5187 23.7122L51.4974 23.7527L51.5371 24.752ZM51.0186 38.8945C50.4045 39.6654 49.6398 40.3474 48.7143 40.9376L49.7896 42.6239C50.8856 41.9251 51.8201 41.0983 52.5829 40.1407L51.0186 38.8945ZM48.7143 40.9376C47.766 41.5423 46.7469 42.0453 45.6554 42.446L46.3446 44.3235C47.5675 43.8746 48.7165 43.3083 49.7896 42.6239L48.7143 40.9376ZM45.6554 42.446C44.556 42.8496 43.4292 43.1487 42.2741 43.3435L42.6068 45.3157C43.8833 45.1003 45.1295 44.7696 46.3446 44.3235L45.6554 42.446ZM42.2626 43.3455C41.0983 43.5559 40.0009 43.6592 38.9688 43.6592V45.6592C40.1339 45.6592 41.3509 45.5427 42.6183 45.3136L42.2626 43.3455ZM38.9688 43.6592C36.9668 43.6592 35.1461 43.3008 33.4941 42.5967L32.71 44.4365C34.6322 45.2558 36.7226 45.6592 38.9688 45.6592V43.6592ZM33.4941 42.5967C31.823 41.8844 30.3886 40.9103 29.1807 39.6753L27.7509 41.0737C29.1505 42.5048 30.8069 43.6254 32.71 44.4365L33.4941 42.5967ZM29.1885 39.6833C27.9916 38.432 27.0484 36.9591 26.361 35.2544L24.5062 36.0024C25.2837 37.9306 26.362 39.6217 27.7432 41.0657L29.1885 39.6833ZM26.361 35.2544C25.6798 33.565 25.335 31.7373 25.335 29.7617H23.335C23.335 31.9756 23.7225 34.059 24.5062 36.0024L26.361 35.2544ZM25.335 29.7617C25.335 28.2423 25.5091 26.7607 25.8566 25.3153L23.912 24.8478C23.527 26.4493 23.335 28.0878 23.335 29.7617H25.335ZM25.8571 25.3132C26.2064 23.846 26.7009 22.4759 27.3388 21.2001L25.5499 20.3057C24.8401 21.7253 24.2946 23.2409 23.9115 24.8499L25.8571 25.3132ZM27.3368 21.204C27.9887 19.914 28.7777 18.7382 29.7036 17.674L28.1948 16.3612C27.1579 17.5529 26.2769 18.8672 25.5518 20.3019L27.3368 21.204ZM29.7078 17.6692C30.6293 16.5964 31.6726 15.6769 32.8392 14.9083L31.7389 13.2382C30.4153 14.1102 29.2321 15.1536 28.1906 16.366L29.7078 17.6692ZM32.8392 14.9083C34.002 14.1423 35.2773 13.5449 36.6694 13.1176L36.0826 11.2056C34.5156 11.6866 33.0664 12.3636 31.7389 13.2382L32.8392 14.9083ZM36.6694 13.1176C38.0458 12.6951 39.5282 12.4805 41.1221 12.4805V10.4805C39.3468 10.4805 37.6651 10.7199 36.0826 11.2056L36.6694 13.1176ZM41.1221 12.4805C41.7213 12.4805 42.3677 12.5084 43.0622 12.565L43.2249 10.5717C42.4838 10.5112 41.7826 10.4805 41.1221 10.4805V12.4805ZM43.0824 12.5665C43.7591 12.6079 44.4284 12.6907 45.0906 12.8149L45.4592 10.8492C44.7151 10.7097 43.9636 10.6167 43.2047 10.5702L43.0824 12.5665ZM45.1138 12.819C45.7824 12.9281 46.4283 13.0847 47.0523 13.2881L47.6723 11.3867C46.9486 11.1507 46.203 10.9703 45.436 10.8451L45.1138 12.819ZM47.0523 13.2881C47.6663 13.4884 48.2166 13.7319 48.707 14.0158L49.709 12.285C49.0861 11.9243 48.406 11.6259 47.6723 11.3867L47.0523 13.2881ZM48.2107 13.0773L47.5954 21.4708L49.5901 21.617L50.2053 13.2235L48.2107 13.0773ZM48.9439 20.6076C48.047 20.2713 47.1184 20.0473 46.1598 19.9354L45.9281 21.922C46.7274 22.0152 47.4979 22.2014 48.2416 22.4803L48.9439 20.6076ZM46.1783 19.9378C45.2715 19.8148 44.377 19.7529 43.4951 19.7529V21.7529C44.2832 21.7529 45.0879 21.8082 45.9096 21.9196L46.1783 19.9378ZM43.4951 19.7529C42.2174 19.7529 41.0042 19.9529 39.8629 20.3605L40.5356 22.244C41.445 21.9192 42.4291 21.7529 43.4951 21.7529V19.7529ZM39.8707 20.3577C38.7435 20.7498 37.7423 21.3267 36.878 22.0913L38.2031 23.5893C38.8622 23.0063 39.6335 22.5578 40.5277 22.2467L39.8707 20.3577ZM36.8708 22.0978C36.0162 22.8686 35.3434 23.8028 34.8504 24.8875L36.6711 25.7151C37.057 24.8661 37.5707 24.1597 38.2103 23.5829L36.8708 22.0978ZM34.8504 24.8875C34.3439 26.0018 34.1016 27.2373 34.1016 28.5752H36.1016C36.1016 27.4815 36.2987 26.5344 36.6711 25.7151L34.8504 24.8875ZM34.1016 28.5752C34.1016 29.4279 34.2165 30.2602 34.4477 31.0692L36.3707 30.5197C36.1917 29.8931 36.1016 29.2459 36.1016 28.5752H34.1016ZM34.4492 31.0744C34.6852 31.8835 35.0431 32.6207 35.527 33.2773L37.1371 32.0909C36.8006 31.6342 36.5434 31.1116 36.3692 30.5144L34.4492 31.0744ZM35.545 33.301C36.0549 33.9516 36.68 34.4788 37.4118 34.8795L38.3724 33.1253C37.8737 32.8523 37.4587 32.5006 37.1191 32.0672L35.545 33.301ZM37.4204 34.8842C38.2157 35.3096 39.1071 35.5078 40.0674 35.5078V33.5078C39.387 33.5078 38.8283 33.3691 38.3637 33.1207L37.4204 34.8842ZM40.0674 35.5078C40.7124 35.5078 41.3652 35.4229 42.0238 35.2582L41.5387 33.3179C41.0254 33.4463 40.5357 33.5078 40.0674 33.5078V35.5078ZM42.0182 35.2596C42.7479 35.0816 43.4021 34.7706 43.9569 34.3114L42.6818 32.7706C42.387 33.0146 42.0158 33.2016 41.5443 33.3166L42.0182 35.2596ZM44.318 33.5922L44.4059 31.8784L42.4085 31.7759L42.3206 33.4898L44.318 33.5922ZM43.4239 30.8273L38.1505 30.7394L38.1171 32.7391L43.3906 32.827L43.4239 30.8273ZM39.133 31.7792L39.3967 25.1874L37.3983 25.1075L37.1346 31.6993L39.133 31.7792ZM38.431 26.1469C40.6091 26.0738 42.7873 26.0153 44.9654 25.9715L44.9252 23.9719C42.7381 24.0159 40.551 24.0746 38.3639 24.148L38.431 26.1469ZM44.9721 25.9713C47.1591 25.9126 49.3607 25.8392 51.5768 25.7512L51.4974 23.7527C49.2897 23.8405 47.0967 23.9136 44.9185 23.972L44.9721 25.9713ZM50.5373 24.7698L50.8009 39.5354L52.8006 39.4997L52.5369 24.7341L50.5373 24.7698Z" fill="#9500FF" mask="url(#path-3-outside-1_495_90)"/>
<defs>
<linearGradient id="paint0_linear_495_90" x1="4" y1="27.9818" x2="53" y2="27.9818" gradientUnits="userSpaceOnUse">
<stop stop-color="#9500FF"/>
<stop offset="1" stop-color="#9500FF" stop-opacity="0.6"/>
</linearGradient>
<linearGradient id="paint1_linear_495_90" x1="106.5" y1="12" x2="289.5" y2="12" gradientUnits="userSpaceOnUse">
<stop stop-color="#9500FF"/>
<stop offset="0.554678" stop-color="#CC00FF"/>
</linearGradient>
</defs>
</svg>
