<svg width="54" height="42" viewBox="0 0 54 42" fill="none" xmlns="http://www.w3.org/2000/svg">
<path d="M39.3204 11.4052H9.85889C9.40698 11.4052 9.04053 11.7716 9.04053 12.2235V29.4093H11.4956C12.3995 29.4093 13.1323 30.142 13.1323 31.0461C13.1323 31.95 12.3994 32.6828 11.4956 32.6828H9.04053V35.1378C9.04053 35.5898 9.40698 35.9562 9.85889 35.9562H40.1387V12.2235C40.1387 11.7715 39.7723 11.4052 39.3204 11.4052Z" fill="#00C3FF"/>
<path d="M49.9593 24.4991H40.1388V35.9564H53.2327V27.7727C53.2327 25.9647 51.7671 24.4991 49.9593 24.4991Z" fill="#00AAF0"/>
<path d="M40.1388 26.9543H49.0046C49.9086 26.9543 50.6413 27.687 50.6413 28.5911V35.9564H40.1388V26.9543Z" fill="#0096DC"/>
<path d="M46.6858 14.6787H40.1388V17.9522H49.1409V17.1339C49.1409 15.7779 48.0417 14.6787 46.6858 14.6787Z" fill="#00AAF0"/>
<path d="M49.9593 24.4992L48.3225 17.9523H40.1388V24.4992H49.9593Z" fill="#B4E6FF"/>
<path d="M49.9592 27.7727H53.2328V31.0462H51.596C50.692 31.0462 49.9593 30.3135 49.9593 29.4095V27.7727H49.9592Z" fill="#F1F4FB"/>
<path d="M45.8674 30.2278C43.4009 30.2278 41.2551 31.593 40.1388 33.6077V35.9564H52.3578C51.9542 32.7277 49.2054 30.2278 45.8674 30.2278Z" fill="#007DC8"/>
<path d="M50.6412 32.3004V35.9565H52.3579C52.1822 34.5508 51.5613 33.2837 50.6412 32.3004Z" fill="#0096DC"/>
<path d="M45.8674 40.8663C48.1273 40.8663 49.9593 39.0343 49.9593 36.7744C49.9593 34.5145 48.1273 32.6825 45.8674 32.6825C43.6075 32.6825 41.7755 34.5145 41.7755 36.7744C41.7755 39.0343 43.6075 40.8663 45.8674 40.8663Z" fill="#5B5D6E"/>
<path d="M43.4122 20.4073H48.9362L48.3225 17.9523H40.1388V24.4992H42.5939V21.2257C42.5938 20.7736 42.9602 20.4073 43.4122 20.4073Z" fill="#9BD6FF"/>
<path d="M18.861 30.2278C16.7945 30.2278 14.9545 31.1875 13.7548 32.6829H11.4957H9.04053V35.1379C9.04053 35.5898 9.40698 35.9563 9.85889 35.9563H40.1387V32.6828H23.9673C22.7675 31.1876 20.9275 30.2278 18.861 30.2278Z" fill="#00AAF0"/>
<path d="M18.8612 40.8663C21.1211 40.8663 22.9531 39.0343 22.9531 36.7744C22.9531 34.5145 21.1211 32.6825 18.8612 32.6825C16.6013 32.6825 14.7693 34.5145 14.7693 36.7744C14.7693 39.0343 16.6013 40.8663 18.8612 40.8663Z" fill="#5B5D6E"/>
<path d="M50.5698 23.7781L49.3008 18.7025C49.6478 18.6288 49.9081 18.321 49.9081 17.9523V17.1339C49.9081 15.3571 48.4625 13.9116 46.6858 13.9116H40.906V12.2237C40.906 11.3493 40.1948 10.6381 39.3204 10.6381H28.5735L35.1043 8.02575C35.4977 7.86841 35.6891 7.42186 35.5317 7.02842C35.3744 6.63508 34.928 6.44358 34.5344 6.60101L29.1871 8.73988C30.8165 7.69442 32.4286 6.54378 33.0424 5.73911C34.2372 4.17254 33.9346 1.926 32.3681 0.731142C30.8015 -0.463809 28.555 -0.161099 27.3601 1.40547C26.4871 2.55027 25.3352 5.76696 24.5897 8.03369C23.8441 5.76715 22.6923 2.55027 21.8193 1.40547C20.6245 -0.161099 18.3779 -0.463618 16.8113 0.731142C15.2447 1.9259 14.9422 4.17244 16.137 5.73911C16.7507 6.54387 18.3627 7.69442 19.9923 8.73988L14.645 6.60101C14.2513 6.44339 13.805 6.63498 13.6476 7.02842C13.4902 7.42186 13.6816 7.86841 14.075 8.02575L20.6058 10.6381H9.85893C8.98458 10.6381 8.27331 11.3493 8.27331 12.2237V26.1361C8.27331 26.5597 8.61679 26.9033 9.04057 26.9033C9.46434 26.9033 9.80782 26.5598 9.80782 26.1361V12.2237C9.80782 12.1954 9.83069 12.1726 9.85893 12.1726H39.3203C39.3486 12.1726 39.3714 12.1954 39.3714 12.2237V26.1363C39.3714 26.5599 39.7149 26.9035 40.1387 26.9035C40.5624 26.9035 40.9059 26.56 40.9059 26.1363V25.2665H49.9562C49.9571 25.2665 49.9578 25.2667 49.9586 25.2667C49.9595 25.2667 49.9602 25.2666 49.9611 25.2666C51.0747 25.2675 52.0203 25.9984 52.3449 27.0056H49.9592C49.5355 27.0056 49.1919 27.3491 49.1919 27.7729V29.4096C49.1919 30.7352 50.2703 31.8136 51.5959 31.8136H52.4655V35.1893H50.4593C49.8003 33.2864 47.9914 31.9158 45.8673 31.9158C43.7432 31.9158 41.9342 33.2864 41.2753 35.1893H40.9058V29.4095C40.9058 28.9858 40.5624 28.6422 40.1386 28.6422C39.7149 28.6422 39.3713 28.9857 39.3713 29.4095V35.1892H23.4531C22.7941 33.2863 20.9852 31.9157 18.8611 31.9157C16.7369 31.9157 14.9279 33.2863 14.269 35.1892H9.85893C9.83069 35.1892 9.80782 35.1663 9.80782 35.1381V33.4502H13.1325C13.5561 33.4502 13.8997 33.1067 13.8997 32.6829C13.8997 32.2593 13.5562 31.9157 13.1325 31.9157H5.76713C5.34345 31.9157 4.99988 32.2592 4.99988 32.6829C4.99988 33.1066 5.34336 33.4502 5.76713 33.4502H8.27341V35.1381C8.27341 36.0125 8.98468 36.7237 9.85902 36.7237H14.0034C14.0032 36.7408 14.002 36.7577 14.002 36.7748C14.002 39.454 16.1819 41.6339 18.8611 41.6339C21.5403 41.6339 23.7201 39.454 23.7201 36.7748C23.7201 36.7576 23.719 36.7408 23.7188 36.7237H41.0095C41.0093 36.7408 41.0082 36.7577 41.0082 36.7748C41.0082 39.454 43.188 41.6339 45.8672 41.6339C48.5464 41.6339 50.7262 39.454 50.7262 36.7748C50.7262 36.7576 50.7251 36.7408 50.7249 36.7237H53.2326C53.6563 36.7237 53.9999 36.3802 53.9999 35.9565V27.7728C54 25.7521 52.5092 24.0733 50.5698 23.7781ZM28.5803 2.33599C29.262 1.44222 30.5438 1.26966 31.4375 1.95126C32.3314 2.63296 32.504 3.91471 31.8224 4.80849C31.5566 5.15694 30.6589 6.02229 27.6327 7.90286C27.0216 8.28261 26.4264 8.63959 25.9085 8.9444C26.6758 6.58436 27.8381 3.30929 28.5803 2.33599ZM17.3571 4.80849C16.6754 3.91471 16.848 2.63296 17.7419 1.95126C18.1104 1.67028 18.5447 1.53448 18.9758 1.53448C19.5904 1.53448 20.1985 1.81068 20.5992 2.33609C21.3414 3.3092 22.5037 6.58445 23.2711 8.94459C22.7531 8.63978 22.1579 8.2828 21.5469 7.90305C18.5206 6.02239 17.6229 5.15704 17.3571 4.80849ZM40.906 18.7194H47.7235L48.9766 23.732H40.906V18.7194ZM46.6858 15.4459C47.6165 15.4459 48.3737 16.2031 48.3737 17.1338V17.1849H40.906V15.4459H46.6858ZM18.8611 40.0995C17.0279 40.0995 15.5364 38.608 15.5364 36.7748C15.5364 34.9416 17.0279 33.4502 18.8611 33.4502C20.6943 33.4502 22.1857 34.9416 22.1857 36.7748C22.1857 38.6079 20.6943 40.0995 18.8611 40.0995ZM45.8674 40.0995C44.0342 40.0995 42.5428 38.608 42.5428 36.7748C42.5428 34.9416 44.0342 33.4502 45.8674 33.4502C47.7006 33.4502 49.192 34.9416 49.192 36.7748C49.192 38.6079 47.7006 40.0995 45.8674 40.0995ZM51.596 30.279C51.1165 30.279 50.7264 29.8889 50.7264 29.4094V28.5398H52.4655V30.2789H51.596V30.279Z" fill="black"/>
<path d="M18.8609 35.1892C17.9865 35.1892 17.2753 35.9005 17.2753 36.7748C17.2753 37.6492 17.9865 38.3604 18.8609 38.3604C19.7352 38.3604 20.4465 37.6492 20.4465 36.7748C20.4465 35.9005 19.7352 35.1892 18.8609 35.1892Z" fill="black"/>
<path d="M45.8675 35.1892C44.9931 35.1892 44.2819 35.9005 44.2819 36.7748C44.2819 37.6492 44.9931 38.3604 45.8675 38.3604C46.7418 38.3604 47.4531 37.6492 47.4531 36.7748C47.4531 35.9005 46.7418 35.1892 45.8675 35.1892Z" fill="black"/>
<path d="M24.6407 32.683C24.6407 33.1067 24.9842 33.4503 25.408 33.4503H36.8651C37.2888 33.4503 37.6324 33.1068 37.6324 32.683C37.6324 32.2593 37.2889 31.9158 36.8651 31.9158H25.4079C24.9842 31.9158 24.6407 32.2593 24.6407 32.683Z" fill="black"/>
<path d="M5.87828 30.0005H17.1215C17.6065 30.0005 17.9999 29.7767 17.9999 29.5005C17.9999 29.2243 17.6066 29.0005 17.1215 29.0005H5.87828C5.39323 29.0005 4.99988 29.2243 4.99988 29.5005C4.99988 29.7767 5.39323 30.0005 5.87828 30.0005Z" fill="black"/>
<path d="M0.945853 28.0005H12.9999C12.9999 28.0005 12.9999 27.7767 12.9999 27.5005C12.9999 27.2243 12.9999 27.0005 12.9999 27.0005H0.945853C0.423484 27.0005 -0.00012207 27.2243 -0.00012207 27.5005C-0.00012207 27.7767 0.423484 28.0005 0.945853 28.0005Z" fill="black"/>
<path d="M31.6934 22.3109C31.6934 25.948 28.7451 28.8964 25.108 28.8964C21.4713 28.8964 18.5229 25.948 18.5229 22.3109C18.5229 18.6738 21.4713 15.7255 25.108 15.7255C28.7451 15.7255 31.6934 18.6738 31.6934 22.3109Z" fill="white"/>
<path d="M25.1076 29.6442C21.0638 29.6442 17.7743 26.3543 17.7743 22.3109C17.7743 18.2675 21.0638 14.9775 25.1076 14.9775C29.151 14.9775 32.4414 18.2675 32.4414 22.3109C32.4414 26.3543 29.151 29.6442 25.1076 29.6442ZM25.1076 16.4737C21.8892 16.4737 19.2705 19.0924 19.2705 22.3109C19.2705 25.5293 21.8892 28.148 25.1076 28.148C28.3265 28.148 30.9448 25.5293 30.9448 22.3109C30.9448 19.0924 28.3265 16.4737 25.1076 16.4737Z" fill="black"/>
<path d="M23.6719 25.3504C23.5195 25.3504 23.3649 25.3033 23.2318 25.2062C22.8979 24.963 22.8247 24.4955 23.0678 24.1616L24.5953 22.0669V19.0381C24.5953 18.6246 24.93 18.2898 25.3432 18.2898C25.7567 18.2898 26.0915 18.6246 26.0915 19.0381V22.3109C26.0915 22.4698 26.041 22.6239 25.9476 22.7514L24.2772 25.0426C24.1308 25.2438 23.903 25.3504 23.6719 25.3504Z" fill="#4C241D"/>
</svg>
