<svg width="36" height="36" viewBox="0 0 36 36" fill="none" xmlns="http://www.w3.org/2000/svg">
<circle cx="18" cy="18" r="18" fill="#FA7154" fill-opacity="0.05"/>
<circle cx="18" cy="18" r="17" stroke="#FA7154" stroke-opacity="0.15" stroke-width="2"/>
<path d="M12.4697 18.5303C12.1768 18.2374 12.1768 17.7626 12.4697 17.4697L17.2426 12.6967C17.5355 12.4038 18.0104 12.4038 18.3033 12.6967C18.5962 12.9896 18.5962 13.4645 18.3033 13.7574L14.0607 18L18.3033 22.2426C18.5962 22.5355 18.5962 23.0104 18.3033 23.3033C18.0104 23.5962 17.5355 23.5962 17.2426 23.3033L12.4697 18.5303ZM24 18L24 18.75L13 18.75L13 18L13 17.25L24 17.25L24 18Z" fill="#FA7154"/>
</svg>
