<svg width="127" height="31" viewBox="0 0 127 31" fill="none" xmlns="http://www.w3.org/2000/svg">
<rect width="127" height="31" rx="15.5" fill="#FFF5F5"/>
<path d="M10.048 21.112C9.61067 21.112 9.392 20.8827 9.392 20.424V10.296C9.392 9.83733 9.61067 9.608 10.048 9.608C10.4853 9.608 10.704 9.83733 10.704 10.296V20.424C10.704 20.8827 10.4853 21.112 10.048 21.112ZM19.1814 21.144C18.072 21.144 17.1227 20.9093 16.3334 20.44C15.544 19.9707 14.936 19.304 14.5094 18.44C14.0934 17.576 13.8854 16.5467 13.8854 15.352C13.8854 14.168 14.0934 13.144 14.5094 12.28C14.936 11.416 15.544 10.7493 16.3334 10.28C17.1227 9.81067 18.072 9.576 19.1814 9.576C19.8427 9.576 20.472 9.672 21.0694 9.864C21.6667 10.056 22.184 10.328 22.6214 10.68C22.8027 10.808 22.904 10.9573 22.9254 11.128C22.9574 11.2987 22.9307 11.4533 22.8454 11.592C22.76 11.72 22.6374 11.8053 22.4774 11.848C22.328 11.88 22.1574 11.8267 21.9654 11.688C21.208 11.08 20.2907 10.776 19.2134 10.776C17.944 10.776 16.9734 11.176 16.3014 11.976C15.6294 12.776 15.2934 13.9013 15.2934 15.352C15.2934 16.8133 15.6294 17.944 16.3014 18.744C16.9734 19.544 17.944 19.944 19.2134 19.944C20.2907 19.944 21.2187 19.6347 21.9974 19.016C22.1894 18.888 22.36 18.84 22.5094 18.872C22.6694 18.904 22.7867 18.984 22.8614 19.112C22.9467 19.24 22.9787 19.384 22.9574 19.544C22.936 19.704 22.8454 19.848 22.6854 19.976C22.2267 20.36 21.6987 20.6533 21.1014 20.856C20.504 21.048 19.864 21.144 19.1814 21.144ZM26.587 21C26.107 21 25.867 20.76 25.867 20.28V10.44C25.867 9.96 26.107 9.72 26.587 9.72H32.539C32.9123 9.72 33.099 9.90133 33.099 10.264C33.099 10.6373 32.9123 10.824 32.539 10.824H27.147V14.728H32.203C32.5763 14.728 32.763 14.9093 32.763 15.272C32.763 15.6453 32.5763 15.832 32.203 15.832H27.147V19.896H32.539C32.9123 19.896 33.099 20.0773 33.099 20.44C33.099 20.8133 32.9123 21 32.539 21H26.587ZM45.8001 21.144C44.6908 21.144 43.7415 20.9093 42.9521 20.44C42.1628 19.9707 41.5548 19.304 41.1281 18.44C40.7121 17.576 40.5041 16.5467 40.5041 15.352C40.5041 14.168 40.7121 13.144 41.1281 12.28C41.5548 11.416 42.1628 10.7493 42.9521 10.28C43.7415 9.81067 44.6908 9.576 45.8001 9.576C46.4615 9.576 47.0908 9.672 47.6881 9.864C48.2855 10.056 48.8028 10.328 49.2401 10.68C49.4215 10.808 49.5228 10.9573 49.5441 11.128C49.5761 11.2987 49.5495 11.4533 49.4641 11.592C49.3788 11.72 49.2561 11.8053 49.0961 11.848C48.9468 11.88 48.7761 11.8267 48.5841 11.688C47.8268 11.08 46.9095 10.776 45.8321 10.776C44.5628 10.776 43.5921 11.176 42.9201 11.976C42.2481 12.776 41.9121 13.9013 41.9121 15.352C41.9121 16.8133 42.2481 17.944 42.9201 18.744C43.5921 19.544 44.5628 19.944 45.8321 19.944C46.9095 19.944 47.8375 19.6347 48.6161 19.016C48.8081 18.888 48.9788 18.84 49.1281 18.872C49.2881 18.904 49.4055 18.984 49.4801 19.112C49.5655 19.24 49.5975 19.384 49.5761 19.544C49.5548 19.704 49.4641 19.848 49.3041 19.976C48.8455 20.36 48.3175 20.6533 47.7201 20.856C47.1228 21.048 46.4828 21.144 45.8001 21.144ZM53.1418 21.112C52.7044 21.112 52.4858 20.8827 52.4858 20.424V10.392C52.4858 9.944 52.7098 9.72 53.1578 9.72H56.9498C58.1658 9.72 59.0938 10.0027 59.7338 10.568C60.3844 11.1333 60.7098 11.9387 60.7098 12.984C60.7098 13.816 60.4804 14.4987 60.0218 15.032C59.5738 15.5653 58.9338 15.912 58.1018 16.072C58.5924 16.2427 59.0138 16.6587 59.3658 17.32L60.9018 20.184C61.0191 20.408 61.0404 20.6213 60.9658 20.824C60.8911 21.016 60.7204 21.112 60.4538 21.112C60.2724 21.112 60.1231 21.0747 60.0058 21C59.8884 20.9147 59.7871 20.7867 59.7018 20.616L57.9578 17.384C57.7124 16.9253 57.4298 16.6213 57.1098 16.472C56.7898 16.312 56.3684 16.232 55.8458 16.232H53.7978V20.424C53.7978 20.8827 53.5791 21.112 53.1418 21.112ZM53.7978 15.192H56.7578C58.5284 15.192 59.4138 14.456 59.4138 12.984C59.4138 11.5333 58.5284 10.808 56.7578 10.808H53.7978V15.192ZM64.7089 21C64.2289 21 63.9889 20.76 63.9889 20.28V10.44C63.9889 9.96 64.2289 9.72 64.7089 9.72H70.6609C71.0342 9.72 71.2209 9.90133 71.2209 10.264C71.2209 10.6373 71.0342 10.824 70.6609 10.824H65.2689V14.728H70.3249C70.6982 14.728 70.8849 14.9093 70.8849 15.272C70.8849 15.6453 70.6982 15.832 70.3249 15.832H65.2689V19.896H70.6609C71.0342 19.896 71.2209 20.0773 71.2209 20.44C71.2209 20.8133 71.0342 21 70.6609 21H64.7089ZM74.757 21.112C74.3517 21.112 74.149 20.8987 74.149 20.472V10.248C74.149 9.82133 74.3517 9.608 74.757 9.608C74.9277 9.608 75.061 9.64533 75.157 9.72C75.2637 9.784 75.3597 9.896 75.445 10.056L79.589 17.864L83.717 10.056C83.8023 9.896 83.893 9.784 83.989 9.72C84.085 9.64533 84.2237 9.608 84.405 9.608C84.7997 9.608 84.997 9.82133 84.997 10.248V20.472C84.997 20.8987 84.7943 21.112 84.389 21.112C83.9837 21.112 83.781 20.8987 83.781 20.472V12.184L80.165 18.984C80.0903 19.1227 80.0103 19.224 79.925 19.288C79.8503 19.3413 79.7383 19.368 79.589 19.368C79.4397 19.368 79.3223 19.336 79.237 19.272C79.1517 19.208 79.077 19.112 79.013 18.984L75.349 12.2V20.472C75.349 20.8987 75.1517 21.112 74.757 21.112ZM87.5203 21.07H88.5203V20.07H87.5203V21.07Z" fill="#D6241F"/>
</svg>
