<svg width="51" height="40" viewBox="0 0 51 40" fill="none" xmlns="http://www.w3.org/2000/svg">
<path d="M9.84796 17.5079C9.24365 17.509 8.7529 17.0199 8.75177 16.4156C8.75126 16.1242 8.86697 15.8447 9.07326 15.6389L20.0153 4.69696C20.45 4.2772 21.1427 4.2892 21.5626 4.72384C21.9721 5.14791 21.9721 5.82013 21.5626 6.2441L10.6205 17.1862C10.4157 17.3915 10.138 17.5072 9.84796 17.5079Z" fill="#455A64"/>
<path d="M40.4857 17.5078C40.1953 17.5083 39.9165 17.3934 39.711 17.1882L28.7689 6.24627C28.3491 5.81164 28.3611 5.1189 28.7958 4.69904C29.2198 4.28953 29.8921 4.28953 30.316 4.69904L41.2581 15.6411C41.6847 16.0691 41.6837 16.7619 41.2556 17.1886C41.0512 17.3924 40.7744 17.5072 40.4857 17.5078Z" fill="#455A64"/>
<path d="M5.47083 15.3195H44.8622C47.8837 15.3195 50.3332 17.7689 50.3332 20.7904V33.9209C50.3332 36.9424 47.8837 39.3919 44.8622 39.3919H5.47083C2.44929 39.3919 -0.000152588 36.9424 -0.000152588 33.9209V20.7904C-0.000152588 17.7689 2.44929 15.3195 5.47083 15.3195Z" fill="#4CAF50"/>
<path d="M5.47177 35.0151C4.86746 35.0151 4.37753 34.5252 4.37753 33.9209V20.7904C4.37753 20.1861 4.86746 19.6962 5.47177 19.6962H12.037C12.6413 19.6962 13.1312 20.1861 13.1312 20.7904C13.1312 21.3947 12.6413 21.8846 12.037 21.8846H6.56601V33.9209C6.56601 34.5252 6.07608 35.0151 5.47177 35.0151Z" fill="#FAFAFA"/>
<path d="M9.84758 28.4498H5.47073C4.86643 28.4498 4.3765 27.9599 4.3765 27.3556C4.3765 26.7513 4.86643 26.2614 5.47073 26.2614H9.84758C10.4519 26.2614 10.9418 26.7513 10.9418 27.3556C10.9418 27.9599 10.4519 28.4498 9.84758 28.4498Z" fill="#FAFAFA"/>
<path d="M22.9783 35.0151C22.6879 35.0156 22.4092 34.9007 22.2036 34.6955L17.5073 29.997V33.9209C17.5073 34.5252 17.0174 35.0151 16.4131 35.0151C15.8087 35.0151 15.3188 34.5252 15.3188 33.9209V20.7904C15.3188 20.1861 15.8087 19.6962 16.4131 19.6962H19.6957C22.1129 19.6962 24.0725 21.6558 24.0725 24.073C24.0725 26.4903 22.1129 28.4499 19.6957 28.4499H19.0544L23.7507 33.1462C24.1786 33.5729 24.1794 34.2657 23.7527 34.6936C23.5475 34.8994 23.2689 35.015 22.9783 35.0151ZM17.5073 26.2614H19.6957C20.9043 26.2614 21.884 25.2816 21.884 24.073C21.884 22.8644 20.9043 21.8846 19.6957 21.8846H17.5073V26.2614Z" fill="#FAFAFA"/>
<path d="M33.9201 35.0151H27.3549C26.7506 35.0151 26.2607 34.5252 26.2607 33.9209V20.7904C26.2607 20.1861 26.7506 19.6962 27.3549 19.6962H33.9201C34.5244 19.6962 35.0144 20.1861 35.0144 20.7904C35.0144 21.3947 34.5244 21.8846 33.9201 21.8846H28.4492V32.8267H33.9201C34.5244 32.8267 35.0144 33.3166 35.0144 33.921C35.0143 34.5252 34.5244 35.0151 33.9201 35.0151Z" fill="#FAFAFA"/>
<path d="M31.7318 28.4498H27.3549C26.7506 28.4498 26.2607 27.9599 26.2607 27.3556C26.2607 26.7513 26.7506 26.2614 27.3549 26.2614H31.7318C32.3361 26.2614 32.826 26.7513 32.826 27.3556C32.826 27.9599 32.3361 28.4498 31.7318 28.4498Z" fill="#FAFAFA"/>
<path d="M44.862 35.0151H38.2968C37.6925 35.0151 37.2025 34.5252 37.2025 33.9209V20.7904C37.2025 20.1861 37.6925 19.6962 38.2968 19.6962H44.862C45.4663 19.6962 45.9562 20.1861 45.9562 20.7904C45.9562 21.3947 45.4663 21.8846 44.862 21.8846H39.391V32.8267H44.862C45.4663 32.8267 45.9562 33.3166 45.9562 33.921C45.9562 34.5252 45.4663 35.0151 44.862 35.0151Z" fill="#FAFAFA"/>
<path d="M42.6736 28.4498H38.2968C37.6925 28.4498 37.2025 27.9599 37.2025 27.3556C37.2025 26.7513 37.6925 26.2614 38.2968 26.2614H42.6736C43.2779 26.2614 43.7679 26.7513 43.7679 27.3556C43.7679 27.9599 43.2779 28.4498 42.6736 28.4498Z" fill="#FAFAFA"/>
<path d="M25.1664 10.9426C22.1449 10.9426 19.6955 8.49314 19.6955 5.4716C19.6955 2.45005 22.1449 0.000610352 25.1664 0.000610352C28.188 0.000610352 30.6374 2.45005 30.6374 5.4716C30.6374 8.49314 28.1881 10.9426 25.1664 10.9426Z" fill="#607D8B"/>
</svg>
