<svg width="59" height="34" viewBox="0 0 59 34" fill="none" xmlns="http://www.w3.org/2000/svg">
<path d="M5.176 33.414C3.82667 33.414 2.784 33.046 2.048 32.31C1.312 31.5433 0.944 30.47 0.944 29.09V4.48C0.944 3.06933 1.312 1.996 2.048 1.26C2.784 0.523998 3.82667 0.155998 5.176 0.155998C6.556 0.155998 7.59867 0.523998 8.304 1.26C9.04 1.996 9.408 3.06933 9.408 4.48V29.09C9.408 30.47 9.05533 31.5433 8.35 32.31C7.64467 33.046 6.58667 33.414 5.176 33.414Z" fill="#FA7154"/>
<path d="M26.2681 33.506C23.7227 33.506 21.4994 33.0307 19.5981 32.08C17.7274 31.1293 16.2707 29.7647 15.2281 27.986C14.1854 26.1767 13.6641 24.0607 13.6641 21.638C13.6641 19.798 13.9554 18.1573 14.5381 16.716C15.1207 15.244 15.9641 14.002 17.0681 12.99C18.2027 11.978 19.5367 11.2113 21.0701 10.69C22.6341 10.138 24.3667 9.862 26.2681 9.862C27.1574 9.862 28.0927 9.954 29.0741 10.138C30.0554 10.2913 31.0674 10.598 32.1101 11.058C32.8461 11.334 33.3521 11.7633 33.6281 12.346C33.9347 12.898 34.0574 13.496 33.9961 14.14C33.9654 14.784 33.7814 15.3667 33.4441 15.888C33.1374 16.4093 32.6927 16.762 32.1101 16.946C31.5581 17.13 30.9294 17.0533 30.2241 16.716C29.7334 16.4707 29.2121 16.302 28.6601 16.21C28.1387 16.0873 27.6327 16.026 27.1421 16.026C26.3141 16.026 25.5781 16.1487 24.9341 16.394C24.3207 16.6393 23.7994 17.0073 23.3701 17.498C22.9407 17.958 22.6034 18.5407 22.3581 19.246C22.1434 19.9513 22.0361 20.7487 22.0361 21.638C22.0361 23.4167 22.4807 24.812 23.3701 25.824C24.2594 26.836 25.5167 27.342 27.1421 27.342C27.6327 27.342 28.1387 27.296 28.6601 27.204C29.1814 27.0813 29.7027 26.8973 30.2241 26.652C30.9294 26.3147 31.5581 26.2533 32.1101 26.468C32.6621 26.652 33.1067 27.0047 33.4441 27.526C33.7814 28.0473 33.9654 28.63 33.9961 29.274C34.0267 29.8873 33.8887 30.4853 33.5821 31.068C33.2754 31.62 32.7541 32.034 32.0181 32.31C31.0061 32.77 30.0094 33.0767 29.0281 33.23C28.0774 33.414 27.1574 33.506 26.2681 33.506ZM48.8821 33.506C46.1221 33.506 43.7301 33.0307 41.7061 32.08C39.7128 31.0987 38.1794 29.7187 37.1061 27.94C36.0328 26.1613 35.4961 24.0607 35.4961 21.638C35.4961 19.3073 36.0021 17.268 37.0141 15.52C38.0568 13.7413 39.4674 12.3613 41.2461 11.38C43.0554 10.368 45.1101 9.862 47.4101 9.862C49.0968 9.862 50.6301 10.138 52.0101 10.69C53.3901 11.2113 54.5708 11.9933 55.5521 13.036C56.5334 14.048 57.2694 15.2747 57.7601 16.716C58.2814 18.1573 58.5421 19.7673 58.5421 21.546C58.5421 22.1593 58.3734 22.6193 58.0361 22.926C57.6988 23.202 57.1621 23.34 56.4261 23.34H42.3501V19.476H52.5621L51.8261 20.074C51.8261 18.9393 51.6728 18.0193 51.3661 17.314C51.0594 16.6087 50.5994 16.072 49.9861 15.704C49.4034 15.336 48.6674 15.152 47.7781 15.152C46.8274 15.152 45.9994 15.382 45.2941 15.842C44.6194 16.2713 44.0981 16.9153 43.7301 17.774C43.3621 18.6327 43.1781 19.706 43.1781 20.994V21.408C43.1781 23.5853 43.6534 25.1493 44.6041 26.1C45.5854 27.02 47.0881 27.48 49.1121 27.48C49.7868 27.48 50.5534 27.4033 51.4121 27.25C52.3014 27.066 53.1448 26.8207 53.9421 26.514C54.7394 26.2073 55.4294 26.1613 56.0121 26.376C56.5948 26.56 57.0394 26.8973 57.3461 27.388C57.6834 27.848 57.8674 28.3847 57.8981 28.998C57.9288 29.5807 57.7908 30.1633 57.4841 30.746C57.1774 31.298 56.6714 31.7273 55.9661 32.034C54.8928 32.5247 53.7428 32.8927 52.5161 33.138C51.3201 33.3833 50.1088 33.506 48.8821 33.506Z" fill="black"/>
</svg>
