<svg width="59" height="34" viewBox="0 0 59 34" fill="none" xmlns="http://www.w3.org/2000/svg">
<path d="M5.176 33.414C3.82667 33.414 2.784 33.046 2.048 32.31C1.312 31.574 0.944 30.5007 0.944 29.09V4.48C0.944 3.06933 1.312 1.996 2.048 1.26C2.784 0.523998 3.82667 0.155998 5.176 0.155998C6.52533 0.155998 7.568 0.523998 8.304 1.26C9.04 1.996 9.408 3.06933 9.408 4.48V29.09C9.408 30.5007 9.04 31.574 8.304 32.31C7.59867 33.046 6.556 33.414 5.176 33.414Z" fill="#FA7154"/>
<path d="M26.2681 33.506C23.7227 33.506 21.4994 33.0307 19.5981 32.08C17.7274 31.1293 16.2707 29.7647 15.2281 27.986C14.1854 26.2073 13.6641 24.0913 13.6641 21.638C13.6641 19.1847 14.1854 17.084 15.2281 15.336C16.2707 13.5573 17.7274 12.208 19.5981 11.288C21.4994 10.3373 23.7227 9.862 26.2681 9.862C27.1574 9.862 28.0927 9.954 29.0741 10.138C30.0554 10.2913 31.0674 10.598 32.1101 11.058C32.8154 11.334 33.3214 11.7633 33.6281 12.346C33.9347 12.898 34.0574 13.496 33.9961 14.14C33.9654 14.784 33.7814 15.3667 33.4441 15.888C33.1374 16.4093 32.6927 16.762 32.1101 16.946C31.5581 17.13 30.9294 17.0533 30.2241 16.716C29.2121 16.256 28.1847 16.026 27.1421 16.026C25.5167 16.026 24.2594 16.5167 23.3701 17.498C22.4807 18.4793 22.0361 19.8593 22.0361 21.638C22.0361 23.4473 22.4807 24.858 23.3701 25.87C24.2594 26.8513 25.5167 27.342 27.1421 27.342C27.6327 27.342 28.1387 27.296 28.6601 27.204C29.1814 27.0813 29.7027 26.8973 30.2241 26.652C30.9601 26.3147 31.5887 26.2533 32.1101 26.468C32.6621 26.652 33.0914 27.0047 33.3981 27.526C33.7354 28.0167 33.9194 28.584 33.9501 29.228C34.0114 29.872 33.8887 30.4853 33.5821 31.068C33.2754 31.62 32.7541 32.034 32.0181 32.31C30.9754 32.77 29.9787 33.0767 29.0281 33.23C28.0774 33.414 27.1574 33.506 26.2681 33.506ZM48.8821 33.506C46.1221 33.506 43.7301 33.0307 41.7061 32.08C39.7128 31.0987 38.1794 29.7187 37.1061 27.94C36.0328 26.1613 35.4961 24.0607 35.4961 21.638C35.4961 19.338 36.0021 17.2987 37.0141 15.52C38.0568 13.7413 39.4674 12.3613 41.2461 11.38C43.0554 10.368 45.1101 9.862 47.4101 9.862C49.6794 9.862 51.6421 10.3373 53.2981 11.288C54.9848 12.2387 56.2728 13.6033 57.1621 15.382C58.0821 17.13 58.5421 19.1847 58.5421 21.546C58.5421 22.742 57.8368 23.34 56.4261 23.34H43.3161C43.5921 24.812 44.2054 25.87 45.1561 26.514C46.1068 27.158 47.4254 27.48 49.1121 27.48C49.7561 27.48 50.5228 27.4033 51.4121 27.25C52.3014 27.0967 53.1448 26.8513 53.9421 26.514C54.9234 26.146 55.7514 26.146 56.4261 26.514C57.1008 26.8513 57.5454 27.388 57.7601 28.124C58.0054 28.8293 57.9748 29.5653 57.6681 30.332C57.3921 31.068 56.8248 31.6353 55.9661 32.034C54.8928 32.5553 53.7428 32.9233 52.5161 33.138C51.3201 33.3833 50.1088 33.506 48.8821 33.506ZM47.7781 15.152C46.5514 15.152 45.5394 15.52 44.7421 16.256C43.9754 16.992 43.4848 18.0653 43.2701 19.476H51.8261C51.7341 18.0347 51.3354 16.9613 50.6301 16.256C49.9554 15.52 49.0048 15.152 47.7781 15.152Z" fill="white"/>
</svg>
