<svg width="46" height="42" viewBox="0 0 46 42" fill="none" xmlns="http://www.w3.org/2000/svg">
<path d="M43.336 26.8278H2.06347C0.928475 26.8278 -0.000183105 25.8991 -0.000183105 24.7641V2.0642C-0.000183105 0.929207 0.928475 0.000549316 2.06347 0.000549316H43.3361C44.4711 0.000549316 45.3998 0.929207 45.3998 2.0642V24.7641C45.3997 25.8991 44.471 26.8278 43.336 26.8278Z" fill="#0E9347"/>
<path d="M38.177 18.5732C35.8038 18.5732 33.637 19.7082 32.3988 21.5655C31.367 21.0497 30.232 20.6369 28.8907 20.6369C25.2793 20.6369 22.287 23.3197 21.7711 26.8278H43.3361C44.3678 26.8278 45.1933 26.1055 45.3997 25.0737C44.9869 21.4623 41.8915 18.5732 38.177 18.5732Z" fill="#0D8944"/>
<path d="M39.209 24.7642H6.19088C6.19088 22.4942 4.33365 20.637 2.06366 20.637V6.19161C4.33365 6.19161 6.19088 4.33439 6.19088 2.06439H39.209C39.209 4.33439 41.0662 6.19161 43.3362 6.19161V20.637C41.0662 20.637 39.209 22.4942 39.209 24.7642Z" fill="#3BB54A"/>
<path d="M38.1766 18.5732C35.8034 18.5732 33.6366 19.7082 32.3984 21.5655C31.3667 21.0497 30.2317 20.6369 28.8903 20.6369C26.0012 20.6369 23.5249 22.2878 22.3899 24.7641H39.2085C39.2085 22.4941 40.9626 20.74 43.2326 20.6369C41.8912 19.3987 40.1372 18.5732 38.1766 18.5732Z" fill="#0E9347"/>
<path d="M22.6997 22.7004C27.2585 22.7004 30.9542 18.5428 30.9542 13.4141C30.9542 8.28543 27.2585 4.12781 22.6997 4.12781C18.1408 4.12781 14.4451 8.28543 14.4451 13.4141C14.4451 18.5428 18.1408 22.7004 22.6997 22.7004Z" fill="#0E9347"/>
<path d="M10.3177 15.4778C11.4575 15.4778 12.3814 14.5538 12.3814 13.4141C12.3814 12.2744 11.4575 11.3505 10.3177 11.3505C9.17802 11.3505 8.25409 12.2744 8.25409 13.4141C8.25409 14.5538 9.17802 15.4778 10.3177 15.4778Z" fill="#0E9347"/>
<path d="M35.0813 15.4778C36.221 15.4778 37.1449 14.5538 37.1449 13.4141C37.1449 12.2744 36.221 11.3505 35.0813 11.3505C33.9416 11.3505 33.0176 12.2744 33.0176 13.4141C33.0176 14.5538 33.9416 15.4778 35.0813 15.4778Z" fill="#0E9347"/>
<path d="M23.7314 12.3824H21.6677C21.0486 12.3824 20.636 11.9697 20.636 11.3506C20.636 10.7315 21.0487 10.3189 21.6677 10.3189H24.7632C25.3823 10.3189 25.795 9.90609 25.795 9.28708C25.795 8.66797 25.3822 8.25529 24.7632 8.25529H23.7314C23.7314 7.63619 23.3186 7.22351 22.6996 7.22351C22.0805 7.22351 21.6678 7.63628 21.6678 8.25529C19.9137 8.25529 18.5724 9.59663 18.5724 11.3507C18.5724 13.1048 19.9137 14.4462 21.6678 14.4462H23.7315C24.3506 14.4462 24.7633 14.8589 24.7633 15.478C24.7633 16.0971 24.3505 16.5097 23.7315 16.5097H20.636C20.0169 16.5097 19.6043 16.9225 19.6043 17.5415C19.6043 18.1606 20.017 18.5733 20.636 18.5733H21.6678C21.6678 19.1924 22.0806 19.6051 22.6996 19.6051C23.3187 19.6051 23.7314 19.1923 23.7314 18.5733C25.4855 18.5733 26.8268 17.232 26.8268 15.4779C26.8268 13.7238 25.4855 12.3824 23.7314 12.3824Z" fill="#89C763"/>
<path d="M26.827 35.0825C30.816 35.0825 34.0497 31.8487 34.0497 27.8597C34.0497 23.8707 30.816 20.637 26.827 20.637C22.838 20.637 19.6042 23.8707 19.6042 27.8597C19.6042 31.8487 22.838 35.0825 26.827 35.0825Z" fill="#FFCA5D"/>
<path d="M36.1133 33.0187C40.1023 33.0187 43.3361 29.785 43.3361 25.796C43.3361 21.807 40.1023 18.5732 36.1133 18.5732C32.1243 18.5732 28.8906 21.807 28.8906 25.796C28.8906 29.785 32.1243 33.0187 36.1133 33.0187Z" fill="#F6B545"/>
<path d="M36.1133 18.5732C32.0892 18.5732 28.8906 21.7719 28.8906 25.796C28.8906 29.8201 32.0892 33.0187 36.1133 33.0187C40.1374 33.0187 43.3361 29.8201 43.3361 25.796C43.3361 21.7719 40.1374 18.5732 36.1133 18.5732ZM36.1133 30.9551C33.2242 30.9551 30.9542 28.6851 30.9542 25.796C30.9542 22.9069 33.2242 20.6369 36.1133 20.6369C39.0024 20.6369 41.2724 22.9069 41.2724 25.796C41.2724 28.6851 39.0024 30.9551 36.1133 30.9551Z" fill="#FFCB5B"/>
<path d="M36.1135 32.9156C40.1376 33.0188 43.3362 29.7169 43.3362 25.796H43.233C42.7171 25.796 42.3043 26.2088 42.2012 26.7247C41.9949 28.1692 41.2726 29.5106 40.2408 30.4392C39.4153 31.2647 38.2803 31.7806 37.0421 31.9869C36.5261 31.9869 36.1135 32.3997 36.1135 32.9156Z" fill="#F6B545"/>
<path d="M36.1133 18.6764C32.0892 18.5732 28.8906 21.8751 28.8906 25.796H28.9938C29.5097 25.796 29.9224 25.3832 30.0256 24.8673C30.2319 23.4228 30.9542 22.0814 31.986 21.1528C32.8114 20.3273 33.9464 19.8114 35.1847 19.605C35.7005 19.6051 36.1133 19.1923 36.1133 18.6764Z" fill="#FFE27A"/>
<path d="M31.6766 26.5183C31.6766 23.6292 33.9466 21.3592 36.8357 21.3592C38.0739 21.3592 39.2089 21.772 40.1374 22.5974C39.1057 21.3592 37.7643 20.637 36.1134 20.637C33.2243 20.637 30.9543 22.907 30.9543 25.7961C30.9543 27.4469 31.6766 28.7883 32.8116 29.7169C32.0893 28.8915 31.6766 27.7565 31.6766 26.5183Z" fill="#F19920"/>
<path d="M39.2086 28.9947C39.1054 28.9947 39.0023 28.9947 38.8991 28.8915C38.6927 28.6851 38.6927 28.3756 38.8991 28.1693C39.5182 27.5501 39.8277 26.6215 39.8277 25.796C39.8277 25.4865 40.0341 25.2802 40.3436 25.2802C40.6532 25.2802 40.8595 25.4865 40.8595 25.796C40.8595 26.931 40.4468 28.066 39.7245 28.8915C39.5182 28.9947 39.3118 28.9947 39.2086 28.9947Z" fill="#FFCB5B"/>
<path d="M36.1134 28.8915C35.4943 28.8915 35.0817 28.4787 35.0817 27.8597V23.7325C35.0817 23.1134 35.4944 22.7007 36.1134 22.7007C36.7325 22.7007 37.1452 23.1135 37.1452 23.7325V27.8597C37.1452 28.4787 36.7326 28.8915 36.1134 28.8915Z" fill="#F19920"/>
<path d="M39.9309 31.8837C39.2087 29.3042 37.3513 27.2405 34.9781 26.3119C34.5654 23.9387 33.0177 21.8752 31.0572 20.637C29.819 21.9783 28.9936 23.7324 28.9936 25.6928C28.9936 29.7169 32.1922 32.9156 36.2163 32.9156C37.5578 33.0187 38.7959 32.606 39.9309 31.8837Z" fill="#F19920"/>
<path d="M32.8117 29.7168C32.0894 28.7882 31.5735 27.6532 31.5735 26.415C31.5735 24.9705 32.1926 23.6292 33.2243 22.7005C33.018 22.391 32.8116 22.1846 32.6052 21.9783C31.5735 22.9069 30.9543 24.2483 30.9543 25.796C30.9544 27.4468 31.6767 28.7882 32.8117 29.7168Z" fill="#E78825"/>
<path d="M35.0811 26.415V27.8596C35.0811 28.4787 35.4938 28.8914 36.1128 28.8914C36.7319 28.8914 37.1446 28.4786 37.1446 27.8596V27.6532C36.5256 27.1373 35.8034 26.7246 35.0811 26.415Z" fill="#E78825"/>
<path d="M39.931 31.8837C39.7246 31.1615 39.5182 30.5424 39.1055 29.9233C38.2801 30.5424 37.2483 30.9551 36.1133 30.9551C33.2242 30.9551 30.9542 28.6851 30.9542 25.796C30.9542 24.2482 31.5733 22.9069 32.6051 21.9782C32.0892 21.4623 31.5733 21.0495 30.9542 20.74C29.716 22.0813 28.8906 23.8354 28.8906 25.7959C28.8906 29.82 32.0892 33.0186 36.1133 33.0186C37.5579 33.0187 38.796 32.606 39.931 31.8837Z" fill="#F6B545"/>
<path d="M39.6212 30.9551C38.8989 31.471 37.9703 31.7805 37.0416 31.9869C36.5257 32.0901 36.113 32.5028 36.113 33.0186C37.5575 33.0186 38.7957 32.6059 39.9307 31.8836C39.8276 31.5741 39.7244 31.2646 39.6212 30.9551Z" fill="#F19920"/>
<path d="M30.9542 20.7401C29.716 22.0814 28.8906 23.8356 28.8906 25.796H28.9938C29.5097 25.796 29.9224 25.3832 30.0256 24.8673C30.2319 23.4228 30.9542 22.1846 31.8828 21.256C31.5733 21.1528 31.2638 20.9465 30.9542 20.7401Z" fill="#FFCB5B"/>
<path d="M26.827 35.0825C30.816 35.0825 34.0497 31.8487 34.0497 27.8597C34.0497 23.8707 30.816 20.637 26.827 20.637C22.838 20.637 19.6042 23.8707 19.6042 27.8597C19.6042 31.8487 22.838 35.0825 26.827 35.0825Z" fill="#F6B545"/>
<path d="M25.7953 33.0186C25.7953 33.7409 25.8985 34.36 26.1048 35.0823C26.3112 35.0823 26.6207 35.0823 26.8271 35.0823C30.8512 35.0823 34.0498 31.8836 34.0498 27.8596C34.0498 27.1373 33.9466 26.5182 33.7403 25.7959C33.5339 25.7959 33.2244 25.7959 33.018 25.7959C28.9939 25.796 25.7953 28.9946 25.7953 33.0186Z" fill="#F19920"/>
<path d="M26.827 20.637C22.8029 20.637 19.6042 23.8356 19.6042 27.8597C19.6042 31.8838 22.8029 35.0825 26.827 35.0825C30.8511 35.0825 34.0497 31.8837 34.0497 27.8597C34.0497 23.8357 30.8511 20.637 26.827 20.637ZM26.827 33.0187C23.9379 33.0187 21.6679 30.7487 21.6679 27.8596C21.6679 24.9705 23.9379 22.7005 26.827 22.7005C29.7161 22.7005 31.9861 24.9705 31.9861 27.8596C31.9861 30.7487 29.7161 33.0187 26.827 33.0187Z" fill="#FFCB5B"/>
<path d="M26.8267 34.9792C30.8508 35.0824 34.0495 31.7806 34.0495 27.8597H33.9463C33.4304 27.8597 33.0176 28.2725 32.9145 28.7884C32.7081 30.233 31.9858 31.5743 30.954 32.5029C30.1286 33.3284 28.9936 33.8443 27.7554 34.0507C27.2395 34.0506 26.8267 34.4633 26.8267 34.9792Z" fill="#F6B545"/>
<path d="M26.827 20.7401C22.8029 20.6369 19.6042 23.9388 19.6042 27.8597H19.7075C20.2234 27.8597 20.6361 27.4469 20.7392 26.931C20.9456 25.4865 21.6679 24.1451 22.6997 23.2165C23.5251 22.391 24.6601 21.8751 25.8983 21.6687C26.4143 21.6687 26.827 21.256 26.827 20.7401Z" fill="#FFE27A"/>
<path d="M22.3904 28.5819C22.3904 25.6928 24.6604 23.4228 27.5495 23.4228C28.7877 23.4228 29.9227 23.8356 30.8513 24.661C29.8195 23.4228 28.4781 22.7006 26.8272 22.7006C23.9381 22.7006 21.6681 24.9706 21.6681 27.8597C21.6681 29.5105 22.3903 30.8519 23.5253 31.7805C22.8032 30.9551 22.3904 29.8201 22.3904 28.5819Z" fill="#F19920"/>
<path d="M29.9223 31.0582C29.8191 31.0582 29.716 31.0582 29.6128 30.955C29.4064 30.7486 29.4064 30.4391 29.6128 30.2327C30.2319 29.6136 30.5414 28.685 30.5414 27.8595C30.5414 27.55 30.7478 27.3436 31.0573 27.3436C31.3669 27.3436 31.5732 27.55 31.5732 27.8595C31.5732 28.9945 31.1604 30.1295 30.4382 30.955C30.2318 31.0582 30.0254 31.0582 29.9223 31.0582Z" fill="#FFCB5B"/>
<path d="M26.8271 30.9551C26.208 30.9551 25.7953 30.5423 25.7953 29.9233V25.7961C25.7953 25.177 26.2081 24.7643 26.8271 24.7643C27.4462 24.7643 27.8589 25.1771 27.8589 25.7961V29.9233C27.8589 30.5423 27.4462 30.9551 26.8271 30.9551Z" fill="#F19920"/>
<path d="M31.5738 25.8991C31.7802 26.5182 31.9866 27.1373 31.9866 27.8596C31.9866 30.7487 29.7166 33.0186 26.8275 33.0186C26.5179 33.0186 26.1053 33.0186 25.7957 32.9154V33.0186C25.7957 33.7409 25.8989 34.36 26.1053 35.0823C26.3116 35.0823 26.6212 35.0823 26.8275 35.0823C30.8516 35.0823 34.0502 31.8836 34.0502 27.8596C34.0502 27.1373 33.947 26.5182 33.7407 25.7959C33.5344 25.7959 33.2248 25.7959 33.0185 25.7959C32.5024 25.796 32.0897 25.796 31.5738 25.8991Z" fill="#F6B545"/>
<path d="M31.9865 41.2733C35.9756 41.2733 39.2093 38.0395 39.2093 34.0505C39.2093 30.0615 35.9756 26.8278 31.9865 26.8278C27.9975 26.8278 24.7638 30.0615 24.7638 34.0505C24.7638 38.0395 27.9975 41.2733 31.9865 41.2733Z" fill="#F6B545"/>
<path d="M31.9856 26.8276C27.9615 26.8276 24.7629 30.0263 24.7629 34.0504C24.7629 38.0745 27.9615 41.2731 31.9856 41.2731C36.0097 41.2731 39.2084 38.0745 39.2084 34.0504C39.2084 30.0263 36.0097 26.8276 31.9856 26.8276ZM31.9856 39.2095C29.0965 39.2095 26.8265 36.9395 26.8265 34.0504C26.8265 31.1613 29.0965 28.8913 31.9856 28.8913C34.8747 28.8913 37.1447 31.1613 37.1447 34.0504C37.1447 36.9395 34.8747 39.2095 31.9856 39.2095Z" fill="#FFCB5B"/>
<path d="M31.9863 41.1701C36.0104 41.2733 39.209 37.9714 39.209 34.0505H39.1058C38.5899 34.0505 38.1771 34.4633 38.074 34.9792C37.8677 36.4237 37.1454 37.7651 36.1136 38.6937C35.2881 39.5192 34.1531 40.0351 32.9149 40.2415C32.399 40.2414 31.9863 40.6541 31.9863 41.1701Z" fill="#F6B545"/>
<path d="M31.9856 26.9311C27.9615 26.8279 24.7629 30.1297 24.7629 34.0506H24.8661C25.382 34.0506 25.7947 33.6378 25.8979 33.1219C26.1042 31.6774 26.8265 30.3361 27.8583 29.4074C28.6838 28.582 29.8188 28.0661 31.057 27.8596C31.5729 27.8597 31.9856 27.447 31.9856 26.9311Z" fill="#FFE27A"/>
<path d="M27.549 34.7728C27.549 31.8837 29.819 29.6137 32.7081 29.6137C33.9463 29.6137 35.0813 30.0265 36.0099 30.8519C34.9781 29.6137 33.6367 28.8915 31.9858 28.8915C29.0967 28.8915 26.8267 31.1615 26.8267 34.0506C26.8267 35.7015 27.5489 37.0428 28.6839 37.9715C27.9617 37.146 27.549 36.011 27.549 34.7728Z" fill="#F19920"/>
<path d="M35.0814 37.2492C34.9782 37.2492 34.8751 37.2492 34.7719 37.146C34.5655 36.9397 34.5655 36.6301 34.7719 36.4238C35.391 35.8047 35.7005 34.876 35.7005 34.0506C35.7005 33.741 35.9069 33.5347 36.2164 33.5347C36.526 33.5347 36.7323 33.741 36.7323 34.0506C36.7323 35.1856 36.3196 36.3206 35.5973 37.146C35.391 37.2492 35.1846 37.2492 35.0814 37.2492Z" fill="#FFCB5B"/>
<path d="M31.9861 37.146C31.367 37.146 30.9543 36.7332 30.9543 36.1142V31.9869C30.9543 31.3678 31.3671 30.9551 31.9861 30.9551C32.6052 30.9551 33.0179 31.3678 33.0179 31.9869V36.1141C33.018 36.7332 32.6052 37.146 31.9861 37.146Z" fill="#F19920"/>
</svg>
