<svg width="36" height="36" viewBox="0 0 36 36" fill="none" xmlns="http://www.w3.org/2000/svg">
<circle cx="18" cy="18" r="18" transform="matrix(-1 0 0 1 36 0)" fill="#FA7154" fill-opacity="0.05"/>
<circle cx="18" cy="18" r="17" transform="matrix(-1 0 0 1 36 0)" stroke="#FA7154" stroke-opacity="0.15" stroke-width="2"/>
<path d="M24.5303 18.5303C24.8232 18.2374 24.8232 17.7626 24.5303 17.4697L19.7574 12.6967C19.4645 12.4038 18.9896 12.4038 18.6967 12.6967C18.4038 12.9896 18.4038 13.4645 18.6967 13.7574L22.9393 18L18.6967 22.2426C18.4038 22.5355 18.4038 23.0104 18.6967 23.3033C18.9896 23.5962 19.4645 23.5962 19.7574 23.3033L24.5303 18.5303ZM13 18L13 18.75L24 18.75L24 18L24 17.25L13 17.25L13 18Z" fill="#FA7154"/>
</svg>
