<svg width="16" height="11" viewBox="0 0 16 11" fill="none" xmlns="http://www.w3.org/2000/svg">
<path d="M10.4465 1.14229H14.439V2.1109H10.4465V1.14229ZM6.44603 4.97468C7.32858 4.55242 7.79087 3.91002 7.79087 2.9174C7.79087 0.954172 6.32996 0.477875 4.6429 0.477875H0V10.332H4.77298C6.5621 10.332 8.24115 9.4715 8.24115 7.47024C8.24115 6.23347 7.65679 5.3189 6.44603 4.97468ZM2.16535 2.15893H4.19662C4.97911 2.15893 5.68155 2.37706 5.68155 3.28563C5.68155 4.12215 5.13521 4.45836 4.36073 4.45836H2.16535V2.15893ZM4.4768 8.65899H2.16335V5.94529H4.52283C5.47542 5.94529 6.0778 6.34354 6.0778 7.35217C6.0778 8.34479 5.35935 8.65899 4.4768 8.65899ZM16 6.86787C16 4.75655 14.7652 2.99745 12.5318 2.99745C10.3605 2.99745 8.88355 4.63247 8.88355 6.77581C8.88355 8.9972 10.2824 10.5222 12.5318 10.5222C14.2349 10.5222 15.3376 9.75567 15.8679 8.12065H14.1408C13.9527 8.73103 13.1882 9.05123 12.5939 9.05123C11.4452 9.05123 10.8448 8.37881 10.8448 7.2361H15.986C15.992 7.11802 16 6.99395 16 6.86787ZM10.8448 5.99933C10.9068 5.06074 11.5332 4.47437 12.4698 4.47437C13.4544 4.47437 13.9467 5.05273 14.0328 5.99933H10.8448Z" fill="white"/>
</svg>
