<svg width="76" height="85" viewBox="0 0 76 85" fill="none" xmlns="http://www.w3.org/2000/svg">
<path d="M46.0594 16.5208C44.5182 16.7344 42.9271 17.1508 41.1973 17.7915C38.7235 18.7099 36.5131 18.7099 34.0358 17.7915C32.3237 17.158 30.6935 16.7308 29.1808 16.5208C23.8844 15.7698 19.9121 18.4037 18.3211 23.4759C17.2034 27.0602 17.2604 30.3277 18.5097 33.4778C18.7767 34.1469 19.0614 34.8125 19.3462 35.4781C19.8801 36.7275 20.4354 38.016 20.8055 39.3045C21.4 41.3618 21.7772 43.3871 21.9374 45.3198C22.0798 47.0889 22.1403 48.8614 22.1937 50.6376C22.2684 52.8124 22.3432 55.0655 22.571 57.283C22.9234 60.764 23.8061 65.0923 27.5399 67.6977C29.3623 68.9613 31.3235 68.8937 32.9146 67.502C35.5165 65.2275 35.6446 62.0098 35.4631 59.4506L35.3777 58.2903C35.2282 56.2899 35.0751 54.2219 35.157 52.2856C35.2139 50.9116 35.5343 49.4167 36.0931 47.9502C36.3565 47.2419 37.1645 47.1351 37.6236 47.1351C38.0757 47.1351 38.873 47.2419 39.1435 47.9538C39.6917 49.4238 40.0156 50.9188 40.0725 52.282C40.1544 54.2254 40.0013 56.3006 39.8483 58.3472L39.7664 59.4542C39.5849 62.0027 39.7059 65.2204 42.322 67.5055C43.1763 68.2459 44.0199 68.5769 45.0557 68.5769C45.9562 68.5769 46.8425 68.2815 47.7003 67.6906C51.4163 65.0923 52.3026 60.764 52.6585 57.2794C52.8827 55.0904 52.9611 52.8693 53.0358 50.6127C53.0892 48.8436 53.1461 47.0782 53.2885 45.3198C53.4523 43.3622 53.8331 41.3404 54.424 39.3009C54.7941 38.0195 55.3458 36.7382 55.8833 35.4959C56.1681 34.8268 56.4564 34.1505 56.7269 33.4706C57.9727 30.3241 58.0296 27.0566 56.9084 23.4759C55.3138 18.4037 51.2525 15.7734 46.0594 16.5208ZM53.4202 32.1537C53.1604 32.8015 52.8863 33.4457 52.6087 34.0864C52.057 35.3642 51.4305 36.82 50.9998 38.3114C50.3413 40.5787 49.9178 42.8354 49.7398 45.0315C49.5903 46.8539 49.5298 48.6799 49.4693 50.5984C49.3981 52.6735 49.3269 54.8127 49.1134 56.9199C48.8001 59.9596 48.1666 63.0207 45.6679 64.7648C45.2479 65.0602 45.1767 65.2773 44.657 64.8217C43.5144 63.8251 43.1229 62.3444 43.3151 59.7211L43.4005 58.5715C43.5536 56.4643 43.7173 54.2895 43.6248 52.1325C43.55 50.4027 43.1478 48.5233 42.468 46.708C41.7419 44.7788 39.8839 43.5793 37.6201 43.5793C35.335 43.5793 33.4698 44.7824 32.758 46.7045C32.0746 48.5126 31.6723 50.3884 31.5976 52.1325C31.5086 54.2788 31.6723 56.4501 31.829 58.5928L31.9108 59.7069C32.0995 62.3408 31.7079 63.818 30.5689 64.8182C30.0457 65.2809 29.9781 65.0531 29.5723 64.7719C27.0558 63.0171 26.4222 59.9596 26.1126 56.9199C25.8955 54.7843 25.8207 52.6166 25.7531 50.5166C25.689 48.6835 25.6321 46.8575 25.4826 45.0315C25.3082 42.8603 24.8846 40.6001 24.2225 38.3114C23.7919 36.8093 23.1654 35.3536 22.6173 34.0722C22.3432 33.4315 22.0727 32.7944 21.8164 32.1572C20.8838 29.8045 20.8518 27.3129 21.7167 24.5366C22.8095 21.0733 25.2085 19.5605 28.686 20.0446C29.946 20.2226 31.3306 20.5857 32.7971 21.1302C36.0718 22.3475 39.1577 22.3475 42.4324 21.1302C43.9202 20.5785 45.2657 20.2226 46.5506 20.0446C50.7791 19.4609 52.7795 22.2194 53.5092 24.5401C54.3813 27.3093 54.3492 29.8045 53.4202 32.1537Z" fill="#031126" fill-opacity="0.75"/>
<path d="M75.1005 23.9458C75.1218 21.3652 75.1432 18.7847 75.1432 16.2077V12.8263C75.1432 11.851 74.7303 10.9113 74.0077 10.2528C73.3635 9.66552 72.552 9.33806 71.3382 9.3523C57.8303 10.5945 48.01 7.92854 39.8554 0.834677C38.5918 -0.279412 36.5345 -0.275853 35.278 0.831117C28.4582 6.77174 20.0866 9.66196 9.6789 9.66196C7.82445 9.66196 5.85967 9.57298 3.55675 9.38789C2.66334 9.38789 1.81977 9.71535 1.18263 10.3062C0.467197 10.9647 0.0578671 11.9008 0.0578671 12.869V16.3394C0.0578671 18.9804 0.0436299 21.6251 0.0293924 24.2697C-0.00620153 30.5413 -0.0453548 37.653 0.146852 44.5725C0.232278 47.4413 0.709235 51.6912 2.50317 55.6671C8.4865 68.8938 19.4459 78.3724 36.0006 84.6334C36.6235 84.8754 37.3176 85 38.065 85C39.0795 85 40.1651 84.7686 41.1083 84.3415C53.349 78.9419 61.9521 72.3321 68.1739 63.5404C73.1713 56.4822 75.4742 49.3064 75.2073 41.6004C75.0044 35.6348 75.0542 29.4273 75.1005 23.9458ZM65.273 61.4796C59.4392 69.7231 51.3024 75.952 39.6668 81.0847C38.8872 81.4335 37.8728 81.5403 37.2748 81.3089C21.6313 75.3932 11.3233 66.5268 5.75289 54.2006C4.19744 50.7622 3.78099 47.0071 3.7098 44.4692C3.51403 37.6067 3.55319 30.5307 3.58878 24.2875C3.60302 21.6393 3.61726 18.9876 3.61726 16.3394L3.53895 12.9437C17.8406 14.1895 28.8391 11.1783 37.5169 3.52202C45.0058 10.0357 54.1072 13.2036 65.3477 13.2036C67.3552 13.2036 69.4838 13.1039 71.5838 12.8334V16.2148C71.5838 18.7847 71.5624 21.351 71.5411 23.9244C71.4948 29.4379 71.445 35.6847 71.6514 41.7285C71.8935 48.6195 69.8077 55.0833 65.273 61.4796Z" fill="#031126" fill-opacity="0.75"/>
</svg>
