<svg width="40" height="39" viewBox="0 0 40 39" fill="none" xmlns="http://www.w3.org/2000/svg">
<path d="M39.9516 21.3391C39.656 19.2913 38.0473 17.6826 35.9995 17.387V16.175C35.9995 12.8311 33.4575 10.1084 30.3329 10.1084C27.2983 10.1084 24.7576 12.7484 24.6663 15.9937H24.705L24.6663 16.0003V29.1382C24.6663 33.3381 21.5263 36.7487 17.6664 36.7487C13.8065 36.7487 10.6665 33.3334 10.6665 29.1382V28.0002C11.6332 28.0002 12.6665 27.2995 12.6665 25.3335V23.6569C16.9451 22.5629 19.9997 18.889 19.9997 14.7237V13.3337H18.6664L18.6384 4.65718C18.6287 3.05112 17.4762 1.6798 15.8958 1.39389C15.5549 0.349491 14.4318 -0.220834 13.3873 0.120161C12.3429 0.461072 11.7726 1.58414 12.1136 2.62862C12.4545 3.67303 13.5775 4.24335 14.622 3.90236C15.1813 3.71978 15.631 3.29903 15.8504 2.75321C16.7045 2.9962 17.2962 3.77319 17.3031 4.66118L17.3331 13.3337H15.9998V14.743C15.9466 17.0619 14.392 19.0771 12.1625 19.717C10.9696 20.0955 9.68877 20.0955 8.49587 19.717C6.26899 19.0749 4.71785 17.0601 4.6666 14.743V13.3337H2.66663V4.66718C2.67046 3.76611 3.27645 2.97879 4.1466 2.74454C4.55235 3.77744 5.71858 4.28577 6.75148 3.88002C7.78438 3.47428 8.29271 2.30796 7.88697 1.27514C7.48122 0.242326 6.31491 -0.266084 5.28209 0.13966C4.72243 0.359574 4.2906 0.818484 4.10527 1.39056C2.50755 1.66355 1.33773 3.04628 1.33331 4.66718V13.3337H0V14.7204C0 18.8903 3.05662 22.5656 7.33322 23.6569V25.3335C7.33322 27.2995 8.36654 28.0002 9.33319 28.0002V29.1382C9.33319 34.0714 13.0711 38.082 17.6664 38.082C22.2617 38.082 25.9996 34.0667 25.9996 29.1382V16.0323C26.0663 13.5024 28.0116 11.4437 30.3329 11.4437C32.7222 11.4437 34.6661 13.5664 34.6661 16.177V17.387C32.1153 17.7552 30.3459 20.1215 30.714 22.6724C31.0822 25.2233 33.4486 26.9927 35.9995 26.6245C38.5503 26.2564 40.3197 23.8899 39.9516 21.3391ZM13.9998 2.66721C13.6316 2.66721 13.3331 2.36871 13.3331 2.00055C13.3331 1.63239 13.6316 1.33389 13.9998 1.33389C14.368 1.33389 14.6664 1.63239 14.6664 2.00055C14.6664 2.36871 14.368 2.66721 13.9998 2.66721ZM5.99991 1.33389C6.36807 1.33389 6.66657 1.63239 6.66657 2.00055C6.66657 2.36871 6.36807 2.66721 5.99991 2.66721C5.63175 2.66721 5.33325 2.36871 5.33325 2.00055C5.33325 1.63239 5.63175 1.33389 5.99991 1.33389ZM1.33331 14.7204V14.667H3.33328V14.743C3.38328 17.6406 5.311 20.1693 8.09188 20.9849C9.54911 21.4464 11.1133 21.4464 12.5705 20.9849C15.3527 20.1704 17.2822 17.6416 17.3331 14.743V14.667H18.6664V14.7204C18.6664 18.429 15.8078 21.6923 11.8665 22.4816C10.941 22.6669 9.99302 22.7134 9.05387 22.6196C8.7447 22.5896 8.43737 22.5431 8.13321 22.4803C4.19194 21.6923 1.33331 18.429 1.33331 14.7204ZM9.33319 26.6669C8.7332 26.6669 8.66654 25.7335 8.66654 25.3335V23.9189C8.71987 23.9256 8.77454 23.9282 8.82854 23.9336C8.8952 23.9409 8.96187 23.9462 9.02853 23.9522C9.34386 23.9802 9.66186 23.9989 9.98252 23.9996H10.0159C10.3358 23.9996 10.6532 23.9802 10.9665 23.9522C11.0332 23.9462 11.1038 23.9409 11.1725 23.9336C11.2252 23.9276 11.2798 23.9256 11.3325 23.9189V25.3335C11.3325 25.7335 11.2658 26.6669 10.6658 26.6669H9.33319ZM35.3328 25.3335C33.4919 25.3335 31.9995 23.8412 31.9995 22.0003C31.9995 20.1594 33.4919 18.667 35.3328 18.667C37.1737 18.667 38.6661 20.1594 38.6661 22.0003C38.6639 23.8403 37.1728 25.3314 35.3328 25.3335Z" fill="#031126" fill-opacity="0.6"/>
<path d="M35.3329 20.0002C34.2283 20.0002 33.3329 20.8956 33.3329 22.0002C33.3329 23.1048 34.2283 24.0002 35.3329 24.0002C36.4374 24.0002 37.3328 23.1048 37.3328 22.0002C37.3328 20.8956 36.4374 20.0002 35.3329 20.0002ZM35.3329 22.6669C34.9647 22.6669 34.6662 22.3684 34.6662 22.0002C34.6662 21.6321 34.9647 21.3336 35.3329 21.3336C35.701 21.3336 35.9995 21.6321 35.9995 22.0002C35.9995 22.3684 35.701 22.6669 35.3329 22.6669Z" fill="#031126" fill-opacity="0.6"/>
</svg>
