<svg width="50" height="50" viewBox="0 0 50 50" fill="none" xmlns="http://www.w3.org/2000/svg">
<path d="M25 0C38.779 0 50 11.2156 50 25.0145C50 38.7844 38.779 50 25 50C11.221 50 0 38.7844 0 25.0145C0 11.2156 11.221 0 25 0ZM22.1525 15.0748C21.6216 15.0748 21.1149 15.1954 20.6322 15.4366C20.029 15.7742 19.5463 16.3049 19.2809 16.932C19.112 17.3661 18.8465 18.6686 18.8465 18.6927C18.5811 20.1158 18.4363 22.4313 18.4363 24.9879C18.4363 27.4264 18.5811 29.643 18.7983 31.0902C18.8224 31.1143 19.0878 32.7303 19.3774 33.2851C19.9083 34.2981 20.9459 34.9252 22.056 34.9252H22.1525C22.8764 34.9011 24.3967 34.274 24.3967 34.2499C26.9546 33.1886 31.9981 29.8842 34.0251 27.6893L34.1699 27.5446C34.4353 27.2793 34.7732 26.8693 34.8456 26.7728C35.2317 26.2663 35.4247 25.6392 35.4247 25.0145C35.4247 24.3126 35.2075 23.6614 34.7973 23.1307C34.7008 23.0343 34.3388 22.6242 34.001 22.2865C32.0222 20.164 26.8581 16.6908 24.1554 15.6295C23.7452 15.4631 22.7075 15.0989 22.1525 15.0748Z" fill="#49B3FB"/>
</svg>
